<?xml version="1.0" encoding="UTF-8" standalone="no"?><!DOCTYPE svg PUBLIC "-//W3C//DTD SVG 1.1//EN" "http://www.w3.org/Graphics/SVG/1.1/DTD/svg11.dtd"><!-- Generated by graphviz version 2.40.1 (20161225.0304)
 --><!-- Title: G Pages: 1 --><svg xmlns="http://www.w3.org/2000/svg" xmlns:xlink="http://www.w3.org/1999/xlink" width="482pt" height="266pt" viewBox="0.00 0.00 481.95 266.40">
<g id="graph0" class="graph" transform="scale(1 1) rotate(0) translate(4 262.4)">
<title>G</title>
<polygon fill="#ffffff" stroke="transparent" points="-4,4 -4,-262.4 477.9538,-262.4 477.9538,4 -4,4"/>
<!-- n -->
<g id="node1" class="node">
<title>n</title>
<ellipse fill="#000000" stroke="#000000" cx="43.793" cy="-148.4" rx="1.8" ry="1.8"/>
<text text-anchor="middle" x="20.9965" y="-134" font-family="Courier,monospace" font-size="14.00" fill="#000000">Start</text>
</g>
<!-- n0 -->
<g id="node2" class="node">
<title>n0</title>
<ellipse fill="none" stroke="#000000" cx="116.793" cy="-148.4" rx="18" ry="18"/>
<text text-anchor="middle" x="116.793" y="-144.2" font-family="Courier,monospace" font-size="14.00" fill="#000000">0</text>
</g>
<!-- n&#45;&gt;n0 -->
<g id="edge1" class="edge">
<title>n-&gt;n0</title>
<path fill="none" stroke="#000000" stroke-dasharray="1,5" d="M45.5975,-148.4C51.5613,-148.4 71.2352,-148.4 88.3938,-148.4"/>
<polygon fill="#000000" stroke="#000000" points="98.6073,-148.4 88.6074,-152.9001 93.6073,-148.4 88.6073,-148.4001 88.6073,-148.4001 88.6073,-148.4001 93.6073,-148.4 88.6073,-143.9001 98.6073,-148.4 98.6073,-148.4"/>
</g>
<!-- n1 -->
<g id="node3" class="node">
<title>n1</title>
<ellipse fill="#d3d3d3" stroke="#000000" cx="266.9783" cy="-148.4" rx="18" ry="18"/>
<ellipse fill="none" stroke="#000000" cx="266.9783" cy="-148.4" rx="22" ry="22"/>
<text text-anchor="middle" x="266.9783" y="-144.2" font-family="Courier,monospace" font-size="14.00" fill="#000000">1</text>
</g>
<!-- n0&#45;&gt;n1 -->
<g id="edge2" class="edge">
<title>n0-&gt;n1</title>
<path fill="none" stroke="#000000" d="M134.9089,-148.4C159.614,-148.4 204.2793,-148.4 234.7643,-148.4"/>
<polygon fill="#000000" stroke="#000000" points="244.8999,-148.4 234.8999,-152.9001 239.8999,-148.4 234.8999,-148.4001 234.8999,-148.4001 234.8999,-148.4001 239.8999,-148.4 234.8999,-143.9001 244.8999,-148.4 244.8999,-148.4"/>
<text text-anchor="middle" x="182.1881" y="-236.6" font-family="Courier,monospace" font-size="14.00" fill="#000000">a</text>
<text text-anchor="middle" x="182.1881" y="-219.8" font-family="Courier,monospace" font-size="14.00" fill="#000000">12=0↑</text>
<text text-anchor="middle" x="182.1881" y="-203" font-family="Courier,monospace" font-size="14.00" fill="#000000">13=1↑</text>
<text text-anchor="middle" x="182.1881" y="-186.2" font-family="Courier,monospace" font-size="14.00" fill="#000000">14=2↑</text>
<text text-anchor="middle" x="182.1881" y="-169.4" font-family="Courier,monospace" font-size="14.00" fill="#000000">15=3↑</text>
<text text-anchor="middle" x="182.1881" y="-152.6" font-family="Courier,monospace" font-size="14.00" fill="#000000">16=4↑</text>
</g>
<!-- n2 -->
<g id="node4" class="node">
<title>n2</title>
<ellipse fill="#d3d3d3" stroke="#000000" cx="436.5587" cy="-148.4" rx="18" ry="18"/>
<ellipse fill="none" stroke="#000000" cx="436.5587" cy="-148.4" rx="22" ry="22"/>
<text text-anchor="middle" x="436.5587" y="-144.2" font-family="Courier,monospace" font-size="14.00" fill="#000000">2</text>
</g>
<!-- n1&#45;&gt;n2 -->
<g id="edge3" class="edge">
<title>n1-&gt;n2</title>
<path fill="none" stroke="#000000" d="M289.148,-148.4C318.4741,-148.4 370.3808,-148.4 404.1195,-148.4"/>
<polygon fill="#000000" stroke="#000000" points="414.3836,-148.4 404.3836,-152.9001 409.3836,-148.4 404.3836,-148.4001 404.3836,-148.4001 404.3836,-148.4001 409.3836,-148.4 404.3835,-143.9001 414.3836,-148.4 414.3836,-148.4"/>
<text text-anchor="middle" x="351.7685" y="-219.8" font-family="Courier,monospace" font-size="14.00" fill="#000000">a</text>
<text text-anchor="middle" x="351.7685" y="-203" font-family="Courier,monospace" font-size="14.00" fill="#000000">17=1↑</text>
<text text-anchor="middle" x="351.7685" y="-186.2" font-family="Courier,monospace" font-size="14.00" fill="#000000">18=2↑</text>
<text text-anchor="middle" x="351.7685" y="-169.4" font-family="Courier,monospace" font-size="14.00" fill="#000000">19=3↑</text>
<text text-anchor="middle" x="351.7685" y="-152.6" font-family="Courier,monospace" font-size="14.00" fill="#000000">20=4↑</text>
</g>
<!-- dr1 -->
<g id="node5" class="node">
<title>dr1</title>
<polygon fill="none" stroke="#000000" stroke-dasharray="1,5" points="304.2688,-108.7002 229.6878,-108.7002 229.6878,-.0998 304.2688,-.0998 304.2688,-108.7002"/>
<text text-anchor="middle" x="266.9783" y="-92.2" font-family="Courier,monospace" font-size="14.00" fill="#000000">6=12</text>
<text text-anchor="middle" x="266.9783" y="-75.4" font-family="Courier,monospace" font-size="14.00" fill="#000000">7=13</text>
<text text-anchor="middle" x="266.9783" y="-58.6" font-family="Courier,monospace" font-size="14.00" fill="#000000">8=14</text>
<text text-anchor="middle" x="266.9783" y="-41.8" font-family="Courier,monospace" font-size="14.00" fill="#000000">9=15</text>
<text text-anchor="middle" x="266.9783" y="-25" font-family="Courier,monospace" font-size="14.00" fill="#000000">10=16</text>
<text text-anchor="middle" x="266.9783" y="-8.2" font-family="Courier,monospace" font-size="14.00" fill="#000000">11=5↑</text>
</g>
<!-- n1&#45;&gt;dr1 -->
<g id="edge5" class="edge">
<title>n1:s-&gt;dr1:n</title>
<path fill="none" stroke="#000000" stroke-dasharray="1,5" d="M266.9783,-118.8161C266.9783,-120.8902 266.9783,-123.15 266.9783,-126.4"/>
<polygon fill="#000000" stroke="#000000" points="266.9783,-108.4 271.4784,-118.4 266.9783,-113.4 266.9784,-118.4 266.9784,-118.4 266.9784,-118.4 266.9783,-113.4 262.4784,-118.4 266.9783,-108.4 266.9783,-108.4"/>
</g>
<!-- n2&#45;&gt;n2 -->
<g id="edge4" class="edge">
<title>n2-&gt;n2</title>
<path fill="none" stroke="#000000" d="M422.3468,-165.2518C418.0401,-176.9156 422.7775,-188.4 436.5587,-188.4 446.2486,-188.4 451.4674,-182.7223 452.215,-175.2967"/>
<polygon fill="#000000" stroke="#000000" points="450.7706,-165.2518 456.6481,-174.5095 451.4823,-170.2009 452.194,-175.15 452.194,-175.15 452.194,-175.15 451.4823,-170.2009 447.7398,-175.7905 450.7706,-165.2518 450.7706,-165.2518"/>
<text text-anchor="middle" x="436.5587" y="-192.6" font-family="Courier,monospace" font-size="14.00" fill="#000000">a</text>
</g>
<!-- dr2 -->
<g id="node6" class="node">
<title>dr2</title>
<polygon fill="none" stroke="#000000" stroke-dasharray="1,5" points="473.8492,-108.7002 399.2682,-108.7002 399.2682,-.0998 473.8492,-.0998 473.8492,-108.7002"/>
<text text-anchor="middle" x="436.5587" y="-92.2" font-family="Courier,monospace" font-size="14.00" fill="#000000">6=12</text>
<text text-anchor="middle" x="436.5587" y="-75.4" font-family="Courier,monospace" font-size="14.00" fill="#000000">7=17</text>
<text text-anchor="middle" x="436.5587" y="-58.6" font-family="Courier,monospace" font-size="14.00" fill="#000000">8=18</text>
<text text-anchor="middle" x="436.5587" y="-41.8" font-family="Courier,monospace" font-size="14.00" fill="#000000">9=19</text>
<text text-anchor="middle" x="436.5587" y="-25" font-family="Courier,monospace" font-size="14.00" fill="#000000">10=20</text>
<text text-anchor="middle" x="436.5587" y="-8.2" font-family="Courier,monospace" font-size="14.00" fill="#000000">11=5↑</text>
</g>
<!-- n2&#45;&gt;dr2 -->
<g id="edge6" class="edge">
<title>n2:s-&gt;dr2:n</title>
<path fill="none" stroke="#000000" stroke-dasharray="1,5" d="M436.5587,-118.8161C436.5587,-120.8902 436.5587,-123.15 436.5587,-126.4"/>
<polygon fill="#000000" stroke="#000000" points="436.5587,-108.4 441.0588,-118.4 436.5587,-113.4 436.5588,-118.4 436.5588,-118.4 436.5588,-118.4 436.5587,-113.4 432.0588,-118.4 436.5587,-108.4 436.5587,-108.4"/>
</g>
<!-- n1_fin -->
<!-- n2_fin -->
</g>
</svg>