<?xml version="1.0" encoding="UTF-8" standalone="no"?><!DOCTYPE svg PUBLIC "-//W3C//DTD SVG 1.1//EN" "http://www.w3.org/Graphics/SVG/1.1/DTD/svg11.dtd"><!-- Generated by graphviz version 2.40.1 (20161225.0304)
 --><!-- Title: G Pages: 1 --><svg xmlns="http://www.w3.org/2000/svg" xmlns:xlink="http://www.w3.org/1999/xlink" width="1469pt" height="96pt" viewBox="0.00 0.00 1468.72 95.50">
<g id="graph0" class="graph" transform="scale(1 1) rotate(0) translate(4 91.5)">
<title>G</title>
<polygon fill="#ffffff" stroke="transparent" points="-4,4 -4,-91.5 1464.7161,-91.5 1464.7161,4 -4,4"/>
<!-- n -->
<g id="node1" class="node">
<title>n</title>
<ellipse fill="#000000" stroke="#000000" cx="43.793" cy="-23.7" rx="1.8" ry="1.8"/>
<text text-anchor="middle" x="20.9965" y="-9.3" font-family="Courier,monospace" font-size="14.00" fill="#000000">Start</text>
</g>
<!-- n13 -->
<g id="node2" class="node">
<title>n13</title>
<ellipse fill="none" stroke="#000000" cx="105.2159" cy="-23.7" rx="22.7465" ry="22.7465"/>
<text text-anchor="middle" x="105.2159" y="-19.5" font-family="Courier,monospace" font-size="14.00" fill="#000000">13</text>
</g>
<!-- n&#45;&gt;n13 -->
<g id="edge1" class="edge">
<title>n-&gt;n13</title>
<path fill="none" stroke="#000000" stroke-dasharray="1,5" d="M45.8367,-23.7C50.2035,-23.7 60.9603,-23.7 72.1378,-23.7"/>
<polygon fill="#000000" stroke="#000000" points="82.3497,-23.7 72.3498,-28.2001 77.3497,-23.7001 72.3497,-23.7001 72.3497,-23.7001 72.3497,-23.7001 77.3497,-23.7001 72.3497,-19.2001 82.3497,-23.7 82.3497,-23.7"/>
</g>
<!-- n12 -->
<g id="node3" class="node">
<title>n12</title>
<ellipse fill="#d3d3d3" stroke="#000000" cx="211.6575" cy="-23.7" rx="22.7465" ry="22.7465"/>
<text text-anchor="middle" x="211.6575" y="-19.5" font-family="Courier,monospace" font-size="14.00" fill="#000000">12</text>
</g>
<!-- n13&#45;&gt;n12 -->
<g id="edge2" class="edge">
<title>n13-&gt;n12</title>
<path fill="none" stroke="#000000" d="M128.0503,-23.7C142.7825,-23.7 162.1864,-23.7 178.5922,-23.7"/>
<polygon fill="#000000" stroke="#000000" points="188.8609,-23.7 178.8609,-28.2001 183.8609,-23.7001 178.8609,-23.7001 178.8609,-23.7001 178.8609,-23.7001 183.8609,-23.7001 178.8609,-19.2001 188.8609,-23.7 188.8609,-23.7"/>
<text text-anchor="middle" x="158.4367" y="-27.9" font-family="Courier,monospace" font-size="14.00" fill="#000000">1/1</text>
</g>
<!-- n11 -->
<g id="node4" class="node">
<title>n11</title>
<ellipse fill="#d3d3d3" stroke="#000000" cx="326.4978" cy="-64.7" rx="22.7465" ry="22.7465"/>
<text text-anchor="middle" x="326.4978" y="-60.5" font-family="Courier,monospace" font-size="14.00" fill="#000000">11</text>
</g>
<!-- n12&#45;&gt;n11 -->
<g id="edge3" class="edge">
<title>n12-&gt;n11</title>
<path fill="none" stroke="#000000" d="M232.989,-31.3157C250.5238,-37.576 275.6096,-46.5321 295.3847,-53.5921"/>
<polygon fill="#000000" stroke="#000000" points="304.8909,-56.986 293.96,-57.8616 300.182,-55.3048 295.4731,-53.6236 295.4731,-53.6236 295.4731,-53.6236 300.182,-55.3048 296.9861,-49.3856 304.8909,-56.986 304.8909,-56.986"/>
<text text-anchor="middle" x="269.0776" y="-52.9" font-family="Courier,monospace" font-size="14.00" fill="#000000">1/ε</text>
</g>
<!-- n10 -->
<g id="node5" class="node">
<title>n10</title>
<ellipse fill="#d3d3d3" stroke="#000000" cx="416.1422" cy="-23.7" rx="22.7465" ry="22.7465"/>
<text text-anchor="middle" x="416.1422" y="-19.5" font-family="Courier,monospace" font-size="14.00" fill="#000000">10</text>
</g>
<!-- n12&#45;&gt;n10 -->
<g id="edge4" class="edge">
<title>n12-&gt;n10</title>
<path fill="none" stroke="#000000" d="M234.5218,-20.7994C261.8021,-17.7096 308.7915,-13.5612 349.1207,-15.9 360.3758,-16.5528 372.6408,-17.8171 383.5656,-19.141"/>
<polygon fill="#000000" stroke="#000000" points="393.5525,-20.4105 383.0649,-23.6135 388.5924,-19.7799 383.6323,-19.1494 383.6323,-19.1494 383.6323,-19.1494 388.5924,-19.7799 384.1998,-14.6853 393.5525,-20.4105 393.5525,-20.4105"/>
<text text-anchor="middle" x="326.4978" y="-20.9" font-family="Courier,monospace" font-size="14.00" fill="#000000">2/ε</text>
</g>
<!-- n11&#45;&gt;n10 -->
<g id="edge5" class="edge">
<title>n11-&gt;n10</title>
<path fill="none" stroke="#000000" d="M347.2893,-55.1907C358.8299,-49.9125 373.388,-43.2542 386.1419,-37.421"/>
<polygon fill="#000000" stroke="#000000" points="395.4634,-33.1577 388.2411,-41.4093 390.9164,-35.2374 386.3694,-37.317 386.3694,-37.317 386.3694,-37.317 390.9164,-35.2374 384.4977,-33.2247 395.4634,-33.1577 395.4634,-33.1577"/>
<text text-anchor="middle" x="371.32" y="-49.9" font-family="Courier,monospace" font-size="14.00" fill="#000000">a</text>
</g>
<!-- n09 -->
<g id="node6" class="node">
<title>n09</title>
<ellipse fill="#d3d3d3" stroke="#000000" cx="517.9609" cy="-23.7" rx="18" ry="18"/>
<text text-anchor="middle" x="517.9609" y="-19.5" font-family="Courier,monospace" font-size="14.00" fill="#000000">9</text>
</g>
<!-- n10&#45;&gt;n09 -->
<g id="edge6" class="edge">
<title>n10-&gt;n09</title>
<path fill="none" stroke="#000000" d="M438.9923,-23.7C453.9507,-23.7 473.6093,-23.7 489.5698,-23.7"/>
<polygon fill="#000000" stroke="#000000" points="499.9254,-23.7 489.9254,-28.2001 494.9254,-23.7001 489.9254,-23.7001 489.9254,-23.7001 489.9254,-23.7001 494.9254,-23.7001 489.9253,-19.2001 499.9254,-23.7 499.9254,-23.7"/>
<text text-anchor="middle" x="469.363" y="-27.9" font-family="Courier,monospace" font-size="14.00" fill="#000000">1/2</text>
</g>
<!-- n08 -->
<g id="node7" class="node">
<title>n08</title>
<ellipse fill="#d3d3d3" stroke="#000000" cx="615.1567" cy="-23.7" rx="18" ry="18"/>
<text text-anchor="middle" x="615.1567" y="-19.5" font-family="Courier,monospace" font-size="14.00" fill="#000000">8</text>
</g>
<!-- n09&#45;&gt;n08 -->
<g id="edge7" class="edge">
<title>n09-&gt;n08</title>
<path fill="none" stroke="#000000" d="M536.2427,-23.7C550.4973,-23.7 570.5458,-23.7 586.8676,-23.7"/>
<polygon fill="#000000" stroke="#000000" points="596.9569,-23.7 586.9569,-28.2001 591.9569,-23.7001 586.9569,-23.7001 586.9569,-23.7001 586.9569,-23.7001 591.9569,-23.7001 586.9568,-19.2001 596.9569,-23.7 596.9569,-23.7"/>
<text text-anchor="middle" x="566.5588" y="-27.9" font-family="Courier,monospace" font-size="14.00" fill="#000000">1/3</text>
</g>
<!-- n07 -->
<g id="node8" class="node">
<title>n07</title>
<ellipse fill="#d3d3d3" stroke="#000000" cx="720.7511" cy="-53.7" rx="18" ry="18"/>
<text text-anchor="middle" x="720.7511" y="-49.5" font-family="Courier,monospace" font-size="14.00" fill="#000000">7</text>
</g>
<!-- n08&#45;&gt;n07 -->
<g id="edge8" class="edge">
<title>n08-&gt;n07</title>
<path fill="none" stroke="#000000" d="M632.5934,-28.6539C649.1778,-33.3656 674.3769,-40.5248 693.5925,-45.9841"/>
<polygon fill="#000000" stroke="#000000" points="703.2884,-48.7388 692.4393,-50.3345 698.4788,-47.3723 693.6691,-46.0058 693.6691,-46.0058 693.6691,-46.0058 698.4788,-47.3723 694.8989,-41.6771 703.2884,-48.7388 703.2884,-48.7388"/>
<text text-anchor="middle" x="667.9539" y="-47.9" font-family="Courier,monospace" font-size="14.00" fill="#000000">1/ε</text>
</g>
<!-- n05 -->
<g id="node9" class="node">
<title>n05</title>
<ellipse fill="#d3d3d3" stroke="#000000" cx="931.9399" cy="-23.7" rx="18" ry="18"/>
<text text-anchor="middle" x="931.9399" y="-19.5" font-family="Courier,monospace" font-size="14.00" fill="#000000">5</text>
</g>
<!-- n08&#45;&gt;n05 -->
<g id="edge9" class="edge">
<title>n08-&gt;n05</title>
<path fill="none" stroke="#000000" d="M633.5575,-23.7C686.6094,-23.7 840.1258,-23.7 903.7755,-23.7"/>
<polygon fill="#000000" stroke="#000000" points="913.883,-23.7 903.883,-28.2001 908.883,-23.7001 903.883,-23.7001 903.883,-23.7001 903.883,-23.7001 908.883,-23.7001 903.8829,-19.2001 913.883,-23.7 913.883,-23.7"/>
<text text-anchor="middle" x="773.5483" y="-27.9" font-family="Courier,monospace" font-size="14.00" fill="#000000">2/ε</text>
</g>
<!-- n06 -->
<g id="node10" class="node">
<title>n06</title>
<ellipse fill="#d3d3d3" stroke="#000000" cx="826.3455" cy="-53.7" rx="18" ry="18"/>
<text text-anchor="middle" x="826.3455" y="-49.5" font-family="Courier,monospace" font-size="14.00" fill="#000000">6</text>
</g>
<!-- n07&#45;&gt;n06 -->
<g id="edge10" class="edge">
<title>n07-&gt;n06</title>
<path fill="none" stroke="#000000" d="M736.808,-61.9833C742.8883,-64.6892 749.9789,-67.3456 756.7511,-68.7 771.392,-71.6282 775.7046,-71.6282 790.3455,-68.7 793.8374,-68.0016 797.4139,-66.9571 800.893,-65.7381"/>
<polygon fill="#000000" stroke="#000000" points="810.2886,-61.9833 802.6726,-69.8731 805.6456,-63.8389 801.0026,-65.6944 801.0026,-65.6944 801.0026,-65.6944 805.6456,-63.8389 799.3327,-61.5157 810.2886,-61.9833 810.2886,-61.9833"/>
<text text-anchor="middle" x="773.5483" y="-74.9" font-family="Courier,monospace" font-size="14.00" fill="#000000">a</text>
</g>
<!-- n04 -->
<g id="node11" class="node">
<title>n04</title>
<ellipse fill="#d3d3d3" stroke="#000000" cx="1029.1357" cy="-23.7" rx="18" ry="18"/>
<text text-anchor="middle" x="1029.1357" y="-19.5" font-family="Courier,monospace" font-size="14.00" fill="#000000">4</text>
</g>
<!-- n05&#45;&gt;n04 -->
<g id="edge13" class="edge">
<title>n05-&gt;n04</title>
<path fill="none" stroke="#000000" d="M950.2217,-23.7C964.4763,-23.7 984.5248,-23.7 1000.8466,-23.7"/>
<polygon fill="#000000" stroke="#000000" points="1010.9359,-23.7 1000.9359,-28.2001 1005.9359,-23.7001 1000.9359,-23.7001 1000.9359,-23.7001 1000.9359,-23.7001 1005.9359,-23.7001 1000.9358,-19.2001 1010.9359,-23.7 1010.9359,-23.7"/>
<text text-anchor="middle" x="980.5378" y="-27.9" font-family="Courier,monospace" font-size="14.00" fill="#000000">1/4</text>
</g>
<!-- n06&#45;&gt;n07 -->
<g id="edge11" class="edge">
<title>n06-&gt;n07</title>
<path fill="none" stroke="#000000" d="M808.4685,-50.2421C802.7067,-49.2829 796.2773,-48.3748 790.3455,-47.9 775.4622,-46.7088 771.6343,-46.7088 756.7511,-47.9 754.1559,-48.1077 751.4655,-48.3984 748.7774,-48.74"/>
<polygon fill="#000000" stroke="#000000" points="738.6281,-50.2421 747.8615,-44.3264 743.5742,-49.51 748.5203,-48.778 748.5203,-48.778 748.5203,-48.778 743.5742,-49.51 749.1792,-53.2295 738.6281,-50.2421 738.6281,-50.2421"/>
<text text-anchor="middle" x="773.5483" y="-51.9" font-family="Courier,monospace" font-size="14.00" fill="#000000">1/ε</text>
</g>
<!-- n06&#45;&gt;n05 -->
<g id="edge12" class="edge">
<title>n06-&gt;n05</title>
<path fill="none" stroke="#000000" d="M843.7822,-48.7461C860.3666,-44.0344 885.5657,-36.8752 904.7813,-31.4159"/>
<polygon fill="#000000" stroke="#000000" points="914.4772,-28.6613 906.0877,-35.7229 909.6676,-30.0278 904.8579,-31.3943 904.8579,-31.3943 904.8579,-31.3943 909.6676,-30.0278 903.6281,-27.0656 914.4772,-28.6613 914.4772,-28.6613"/>
<text text-anchor="middle" x="879.1427" y="-47.9" font-family="Courier,monospace" font-size="14.00" fill="#000000">2/ε</text>
</g>
<!-- n03 -->
<g id="node12" class="node">
<title>n03</title>
<ellipse fill="#d3d3d3" stroke="#000000" cx="1126.3315" cy="-23.7" rx="18" ry="18"/>
<text text-anchor="middle" x="1126.3315" y="-19.5" font-family="Courier,monospace" font-size="14.00" fill="#000000">3</text>
</g>
<!-- n04&#45;&gt;n03 -->
<g id="edge14" class="edge">
<title>n04-&gt;n03</title>
<path fill="none" stroke="#000000" d="M1047.4175,-23.7C1061.6721,-23.7 1081.7206,-23.7 1098.0424,-23.7"/>
<polygon fill="#000000" stroke="#000000" points="1108.1317,-23.7 1098.1317,-28.2001 1103.1317,-23.7001 1098.1317,-23.7001 1098.1317,-23.7001 1098.1317,-23.7001 1103.1317,-23.7001 1098.1316,-19.2001 1108.1317,-23.7 1108.1317,-23.7"/>
<text text-anchor="middle" x="1077.7336" y="-27.9" font-family="Courier,monospace" font-size="14.00" fill="#000000">1/5</text>
</g>
<!-- n02 -->
<g id="node13" class="node">
<title>n02</title>
<ellipse fill="#d3d3d3" stroke="#000000" cx="1231.9259" cy="-23.7" rx="18" ry="18"/>
<text text-anchor="middle" x="1231.9259" y="-19.5" font-family="Courier,monospace" font-size="14.00" fill="#000000">2</text>
</g>
<!-- n03&#45;&gt;n02 -->
<g id="edge15" class="edge">
<title>n03-&gt;n02</title>
<path fill="none" stroke="#000000" d="M1144.7246,-23.7C1161.0018,-23.7 1185.0061,-23.7 1203.711,-23.7"/>
<polygon fill="#000000" stroke="#000000" points="1213.7435,-23.7 1203.7436,-28.2001 1208.7435,-23.7001 1203.7435,-23.7001 1203.7435,-23.7001 1203.7435,-23.7001 1208.7435,-23.7001 1203.7435,-19.2001 1213.7435,-23.7 1213.7435,-23.7"/>
<text text-anchor="middle" x="1179.1287" y="-27.9" font-family="Courier,monospace" font-size="14.00" fill="#000000">a</text>
</g>
<!-- n02&#45;&gt;n03 -->
<g id="edge16" class="edge">
<title>n02-&gt;n03</title>
<path fill="none" stroke="#000000" d="M1217.2914,-12.9067C1211.0393,-8.9363 1203.4556,-4.9189 1195.9259,-2.9 1181.5044,.9667 1176.753,.9667 1162.3315,-2.9 1158.096,-4.0356 1153.8435,-5.8036 1149.8204,-7.8398"/>
<polygon fill="#000000" stroke="#000000" points="1140.966,-12.9067 1147.4104,-4.0342 1145.3057,-10.4233 1149.6454,-7.94 1149.6454,-7.94 1149.6454,-7.94 1145.3057,-10.4233 1151.8804,-11.8457 1140.966,-12.9067 1140.966,-12.9067"/>
<text text-anchor="middle" x="1179.1287" y="-7.9" font-family="Courier,monospace" font-size="14.00" fill="#000000">1/ε</text>
</g>
<!-- n01 -->
<g id="node14" class="node">
<title>n01</title>
<ellipse fill="#d3d3d3" stroke="#000000" cx="1337.5203" cy="-23.7" rx="18" ry="18"/>
<text text-anchor="middle" x="1337.5203" y="-19.5" font-family="Courier,monospace" font-size="14.00" fill="#000000">1</text>
</g>
<!-- n02&#45;&gt;n01 -->
<g id="edge17" class="edge">
<title>n02-&gt;n01</title>
<path fill="none" stroke="#000000" d="M1250.319,-23.7C1266.5962,-23.7 1290.6005,-23.7 1309.3054,-23.7"/>
<polygon fill="#000000" stroke="#000000" points="1319.3379,-23.7 1309.338,-28.2001 1314.3379,-23.7001 1309.3379,-23.7001 1309.3379,-23.7001 1309.3379,-23.7001 1314.3379,-23.7001 1309.3379,-19.2001 1319.3379,-23.7 1319.3379,-23.7"/>
<text text-anchor="middle" x="1284.7231" y="-27.9" font-family="Courier,monospace" font-size="14.00" fill="#000000">2/ε</text>
</g>
<!-- n00 -->
<g id="node15" class="node">
<title>n00</title>
<ellipse fill="#d3d3d3" stroke="#000000" cx="1438.7161" cy="-23.7" rx="18" ry="18"/>
<ellipse fill="none" stroke="#000000" cx="1438.7161" cy="-23.7" rx="22" ry="22"/>
<text text-anchor="middle" x="1438.7161" y="-19.5" font-family="Courier,monospace" font-size="14.00" fill="#000000">0</text>
</g>
<!-- n01&#45;&gt;n00 -->
<g id="edge18" class="edge">
<title>n01-&gt;n00</title>
<path fill="none" stroke="#000000" d="M1355.6121,-23.7C1369.6026,-23.7 1389.3432,-23.7 1406.0741,-23.7"/>
<polygon fill="#000000" stroke="#000000" points="1416.5434,-23.7 1406.5435,-28.2001 1411.5434,-23.7001 1406.5434,-23.7001 1406.5434,-23.7001 1406.5434,-23.7001 1411.5434,-23.7001 1406.5434,-19.2001 1416.5434,-23.7 1416.5434,-23.7"/>
<text text-anchor="middle" x="1386.1182" y="-27.9" font-family="Courier,monospace" font-size="14.00" fill="#000000">1/6</text>
</g>
</g>
</svg>