<?xml version="1.0" encoding="UTF-8" standalone="no"?><!DOCTYPE svg PUBLIC "-//W3C//DTD SVG 1.1//EN" "http://www.w3.org/Graphics/SVG/1.1/DTD/svg11.dtd"><!-- Generated by graphviz version 2.40.1 (20161225.0304)
 --><!-- Title: G Pages: 1 --><svg xmlns="http://www.w3.org/2000/svg" xmlns:xlink="http://www.w3.org/1999/xlink" width="1635pt" height="167pt" viewBox="0.00 0.00 1634.87 167.25">
<g id="graph0" class="graph" transform="scale(1 1) rotate(0) translate(4 163.2458)">
<title>G</title>
<polygon fill="#ffffff" stroke="transparent" points="-4,4 -4,-163.2458 1630.8687,-163.2458 1630.8687,4 -4,4"/>
<!-- n -->
<g id="node1" class="node">
<title>n</title>
<ellipse fill="#000000" stroke="#000000" cx="43.793" cy="-57.6229" rx="1.8" ry="1.8"/>
<text text-anchor="middle" x="20.9965" y="-43.2229" font-family="Courier,monospace" font-size="14.00" fill="#000000">Start</text>
</g>
<!-- n17 -->
<g id="node2" class="node">
<title>n17</title>
<ellipse fill="none" stroke="#000000" cx="105.2159" cy="-57.6229" rx="22.7465" ry="22.7465"/>
<text text-anchor="middle" x="105.2159" y="-53.4229" font-family="Courier,monospace" font-size="14.00" fill="#000000"> 0</text>
</g>
<!-- n&#45;&gt;n17 -->
<g id="edge1" class="edge">
<title>n-&gt;n17</title>
<path fill="none" stroke="#000000" stroke-dasharray="1,5" d="M45.8367,-57.6229C50.2035,-57.6229 60.9603,-57.6229 72.1378,-57.6229"/>
<polygon fill="#000000" stroke="#000000" points="82.3497,-57.6229 72.3498,-62.123 77.3497,-57.623 72.3497,-57.623 72.3497,-57.623 72.3497,-57.623 77.3497,-57.623 72.3497,-53.123 82.3497,-57.6229 82.3497,-57.6229"/>
</g>
<!-- n14 -->
<g id="node3" class="node">
<title>n14</title>
<ellipse fill="#d3d3d3" stroke="#000000" cx="220.0561" cy="-88.6229" rx="22.7465" ry="22.7465"/>
<text text-anchor="middle" x="220.0561" y="-84.4229" font-family="Courier,monospace" font-size="14.00" fill="#000000"> 1</text>
</g>
<!-- n17&#45;&gt;n14 -->
<g id="edge2" class="edge">
<title>n17-&gt;n14</title>
<path fill="none" stroke="#000000" d="M127.0868,-63.5267C144.3771,-68.1941 168.7575,-74.7754 188.2137,-80.0274"/>
<polygon fill="#000000" stroke="#000000" points="197.8755,-82.6355 187.0483,-84.3738 193.0483,-81.3324 188.2211,-80.0293 188.2211,-80.0293 188.2211,-80.0293 193.0483,-81.3324 189.3939,-75.6848 197.8755,-82.6355 197.8755,-82.6355"/>
<text text-anchor="middle" x="162.636" y="-81.8229" font-family="Courier,monospace" font-size="14.00" fill="#000000">1/ε</text>
</g>
<!-- n15 -->
<g id="node4" class="node">
<title>n15</title>
<ellipse fill="#d3d3d3" stroke="#000000" cx="283.302" cy="-37.6229" rx="22.7465" ry="22.7465"/>
<text text-anchor="middle" x="283.302" y="-33.4229" font-family="Courier,monospace" font-size="14.00" fill="#000000"> 5</text>
</g>
<!-- n17&#45;&gt;n15 -->
<g id="edge3" class="edge">
<title>n17-&gt;n15</title>
<path fill="none" stroke="#000000" d="M127.468,-52.2484C133.4081,-50.9659 139.8429,-49.7126 145.8388,-48.8229 181.3319,-43.5561 222.3749,-40.6176 250.3082,-39.0863"/>
<polygon fill="#000000" stroke="#000000" points="260.3331,-38.5663 250.5796,-43.5783 255.3398,-38.8254 250.3465,-39.0844 250.3465,-39.0844 250.3465,-39.0844 255.3398,-38.8254 250.1134,-34.5904 260.3331,-38.5663 260.3331,-38.5663"/>
<text text-anchor="middle" x="162.636" y="-53.8229" font-family="Courier,monospace" font-size="14.00" fill="#000000">2/ε</text>
</g>
<!-- n13 -->
<g id="node7" class="node">
<title>n13</title>
<ellipse fill="#d3d3d3" stroke="#000000" cx="346.5478" cy="-136.6229" rx="22.7465" ry="22.7465"/>
<text text-anchor="middle" x="346.5478" y="-132.4229" font-family="Courier,monospace" font-size="14.00" fill="#000000"> 2</text>
</g>
<!-- n14&#45;&gt;n13 -->
<g id="edge6" class="edge">
<title>n14-&gt;n13</title>
<path fill="none" stroke="#000000" d="M241.228,-96.657C261.6589,-104.41 292.8104,-116.2311 315.94,-125.0081"/>
<polygon fill="#000000" stroke="#000000" points="325.3068,-128.5626 314.3608,-129.2219 320.6321,-126.7886 315.9574,-125.0147 315.9574,-125.0147 315.9574,-125.0147 320.6321,-126.7886 317.5539,-120.8074 325.3068,-128.5626 325.3068,-128.5626"/>
<text text-anchor="middle" x="283.302" y="-124.8229" font-family="Courier,monospace" font-size="14.00" fill="#000000">1/1</text>
</g>
<!-- n16 -->
<g id="node5" class="node">
<title>n16</title>
<ellipse fill="#d3d3d3" stroke="#000000" cx="409.7936" cy="-37.6229" rx="22.7465" ry="22.7465"/>
<text text-anchor="middle" x="409.7936" y="-33.4229" font-family="Courier,monospace" font-size="14.00" fill="#000000"> 6</text>
</g>
<!-- n15&#45;&gt;n16 -->
<g id="edge5" class="edge">
<title>n15-&gt;n16</title>
<path fill="none" stroke="#000000" d="M306.2086,-37.6229C325.9094,-37.6229 354.5725,-37.6229 376.7556,-37.6229"/>
<polygon fill="#000000" stroke="#000000" points="387.0573,-37.6229 377.0574,-42.123 382.0573,-37.623 377.0573,-37.623 377.0573,-37.623 377.0573,-37.623 382.0573,-37.623 377.0573,-33.123 387.0573,-37.6229 387.0573,-37.6229"/>
<text text-anchor="middle" x="346.5478" y="-41.8229" font-family="Courier,monospace" font-size="14.00" fill="#000000">1/-1</text>
</g>
<!-- n10 -->
<g id="node6" class="node">
<title>n10</title>
<ellipse fill="#d3d3d3" stroke="#000000" cx="702.7199" cy="-53.6229" rx="22.7465" ry="22.7465"/>
<text text-anchor="middle" x="702.7199" y="-49.4229" font-family="Courier,monospace" font-size="14.00" fill="#000000"> 7</text>
</g>
<!-- n16&#45;&gt;n10 -->
<g id="edge4" class="edge">
<title>n16-&gt;n10</title>
<path fill="none" stroke="#000000" d="M432.779,-38.8784C484.4357,-41.7 609.8633,-48.551 669.7862,-51.824"/>
<polygon fill="#000000" stroke="#000000" points="679.8412,-52.3732 669.6106,-56.3211 674.8486,-52.1005 669.8561,-51.8278 669.8561,-51.8278 669.8561,-51.8278 674.8486,-52.1005 670.1016,-47.3345 679.8412,-52.3732 679.8412,-52.3732"/>
<text text-anchor="middle" x="530.4595" y="-49.8229" font-family="Courier,monospace" font-size="14.00" fill="#000000">1/-2</text>
</g>
<!-- n09 -->
<g id="node10" class="node">
<title>n09</title>
<ellipse fill="#d3d3d3" stroke="#000000" cx="809.1615" cy="-53.6229" rx="22.7465" ry="22.7465"/>
<text text-anchor="middle" x="809.1615" y="-49.4229" font-family="Courier,monospace" font-size="14.00" fill="#000000"> 8</text>
</g>
<!-- n10&#45;&gt;n09 -->
<g id="edge11" class="edge">
<title>n10-&gt;n09</title>
<path fill="none" stroke="#000000" d="M725.5543,-53.6229C740.2865,-53.6229 759.6904,-53.6229 776.0961,-53.6229"/>
<polygon fill="#000000" stroke="#000000" points="786.3648,-53.6229 776.3649,-58.123 781.3648,-53.623 776.3648,-53.623 776.3648,-53.623 776.3648,-53.623 781.3648,-53.623 776.3648,-49.123 786.3648,-53.6229 786.3648,-53.6229"/>
<text text-anchor="middle" x="755.9407" y="-57.8229" font-family="Courier,monospace" font-size="14.00" fill="#000000">1/3</text>
</g>
<!-- n12 -->
<g id="node8" class="node">
<title>n12</title>
<ellipse fill="#d3d3d3" stroke="#000000" cx="473.0394" cy="-136.6229" rx="22.7465" ry="22.7465"/>
<text text-anchor="middle" x="473.0394" y="-132.4229" font-family="Courier,monospace" font-size="14.00" fill="#000000"> 3</text>
</g>
<!-- n13&#45;&gt;n12 -->
<g id="edge7" class="edge">
<title>n13-&gt;n12</title>
<path fill="none" stroke="#000000" d="M369.4545,-136.6229C389.1552,-136.6229 417.8183,-136.6229 440.0015,-136.6229"/>
<polygon fill="#000000" stroke="#000000" points="450.3031,-136.6229 440.3032,-141.123 445.3031,-136.623 440.3031,-136.623 440.3031,-136.623 440.3031,-136.623 445.3031,-136.623 440.3031,-132.123 450.3031,-136.6229 450.3031,-136.6229"/>
<text text-anchor="middle" x="409.7936" y="-140.8229" font-family="Courier,monospace" font-size="14.00" fill="#000000">a</text>
</g>
<!-- n11 -->
<g id="node9" class="node">
<title>n11</title>
<ellipse fill="#d3d3d3" stroke="#000000" cx="587.8796" cy="-88.6229" rx="22.7465" ry="22.7465"/>
<text text-anchor="middle" x="587.8796" y="-84.4229" font-family="Courier,monospace" font-size="14.00" fill="#000000"> 4</text>
</g>
<!-- n12&#45;&gt;n11 -->
<g id="edge8" class="edge">
<title>n12-&gt;n11</title>
<path fill="none" stroke="#000000" d="M494.1029,-127.819C511.9099,-120.3761 537.6416,-109.621 557.6481,-101.2589"/>
<polygon fill="#000000" stroke="#000000" points="566.9497,-97.371 559.4586,-105.3794 562.3365,-99.2993 557.7232,-101.2275 557.7232,-101.2275 557.7232,-101.2275 562.3365,-99.2993 555.9878,-97.0756 566.9497,-97.371 566.9497,-97.371"/>
<text text-anchor="middle" x="530.4595" y="-121.8229" font-family="Courier,monospace" font-size="14.00" fill="#000000">1/2</text>
</g>
<!-- n11&#45;&gt;n14 -->
<g id="edge9" class="edge">
<title>n11-&gt;n14</title>
<path fill="none" stroke="#000000" d="M564.8293,-88.6229C501.7478,-88.6229 326.1188,-88.6229 252.8322,-88.6229"/>
<polygon fill="#000000" stroke="#000000" points="242.7876,-88.6229 252.7876,-84.123 247.7876,-88.623 252.7876,-88.623 252.7876,-88.623 252.7876,-88.623 247.7876,-88.623 252.7875,-93.123 242.7876,-88.6229 242.7876,-88.6229"/>
<text text-anchor="middle" x="409.7936" y="-92.8229" font-family="Courier,monospace" font-size="14.00" fill="#000000">1/ε</text>
</g>
<!-- n11&#45;&gt;n10 -->
<g id="edge10" class="edge">
<title>n11-&gt;n10</title>
<path fill="none" stroke="#000000" d="M609.7505,-81.9573C627.1517,-76.6539 651.7341,-69.1619 671.251,-63.2137"/>
<polygon fill="#000000" stroke="#000000" points="680.9304,-60.2637 672.6767,-67.4836 676.1476,-61.7214 671.3648,-63.1791 671.3648,-63.1791 671.3648,-63.1791 676.1476,-61.7214 670.0529,-58.8746 680.9304,-60.2637 680.9304,-60.2637"/>
<text text-anchor="middle" x="645.2997" y="-79.8229" font-family="Courier,monospace" font-size="14.00" fill="#000000">2/ε</text>
</g>
<!-- n08 -->
<g id="node11" class="node">
<title>n08</title>
<ellipse fill="#d3d3d3" stroke="#000000" cx="924.0017" cy="-85.6229" rx="22.7465" ry="22.7465"/>
<text text-anchor="middle" x="924.0017" y="-81.4229" font-family="Courier,monospace" font-size="14.00" fill="#000000"> 9</text>
</g>
<!-- n09&#45;&gt;n08 -->
<g id="edge12" class="edge">
<title>n09-&gt;n08</title>
<path fill="none" stroke="#000000" d="M831.0324,-59.7172C848.3227,-64.5351 872.7031,-71.3287 892.1593,-76.7501"/>
<polygon fill="#000000" stroke="#000000" points="901.8211,-79.4423 890.9801,-81.0929 897.0046,-78.1002 892.1881,-76.758 892.1881,-76.758 892.1881,-76.758 897.0046,-78.1002 893.396,-72.4232 901.8211,-79.4423 901.8211,-79.4423"/>
<text text-anchor="middle" x="866.5816" y="-77.8229" font-family="Courier,monospace" font-size="14.00" fill="#000000">1/ε</text>
</g>
<!-- n07 -->
<g id="node12" class="node">
<title>n07</title>
<ellipse fill="#d3d3d3" stroke="#000000" cx="924.0017" cy="-22.6229" rx="22.7465" ry="22.7465"/>
<text text-anchor="middle" x="924.0017" y="-18.4229" font-family="Courier,monospace" font-size="14.00" fill="#000000">11</text>
</g>
<!-- n09&#45;&gt;n07 -->
<g id="edge13" class="edge">
<title>n09-&gt;n07</title>
<path fill="none" stroke="#000000" d="M831.0096,-46.4531C837.0666,-44.5435 843.6605,-42.5366 849.7844,-40.8229 863.4945,-36.9862 878.7518,-33.168 891.85,-30.027"/>
<polygon fill="#000000" stroke="#000000" points="901.8208,-27.6657 893.127,-34.3492 896.9554,-28.818 892.09,-29.9703 892.09,-29.9703 892.09,-29.9703 896.9554,-28.818 891.0529,-25.5914 901.8208,-27.6657 901.8208,-27.6657"/>
<text text-anchor="middle" x="866.5816" y="-45.8229" font-family="Courier,monospace" font-size="14.00" fill="#000000">2/ε</text>
</g>
<!-- n05 -->
<g id="node13" class="node">
<title>n05</title>
<ellipse fill="#d3d3d3" stroke="#000000" cx="1030.4433" cy="-85.6229" rx="22.7465" ry="22.7465"/>
<text text-anchor="middle" x="1030.4433" y="-81.4229" font-family="Courier,monospace" font-size="14.00" fill="#000000">10</text>
</g>
<!-- n08&#45;&gt;n05 -->
<g id="edge14" class="edge">
<title>n08-&gt;n05</title>
<path fill="none" stroke="#000000" d="M946.8361,-85.6229C961.5683,-85.6229 980.9722,-85.6229 997.378,-85.6229"/>
<polygon fill="#000000" stroke="#000000" points="1007.6467,-85.6229 997.6467,-90.123 1002.6467,-85.623 997.6467,-85.623 997.6467,-85.623 997.6467,-85.623 1002.6467,-85.623 997.6466,-81.123 1007.6467,-85.6229 1007.6467,-85.6229"/>
<text text-anchor="middle" x="977.2225" y="-89.8229" font-family="Courier,monospace" font-size="14.00" fill="#000000">a</text>
</g>
<!-- n06 -->
<g id="node14" class="node">
<title>n06</title>
<ellipse fill="#d3d3d3" stroke="#000000" cx="1030.4433" cy="-22.6229" rx="22.7465" ry="22.7465"/>
<text text-anchor="middle" x="1030.4433" y="-18.4229" font-family="Courier,monospace" font-size="14.00" fill="#000000">12</text>
</g>
<!-- n07&#45;&gt;n06 -->
<g id="edge15" class="edge">
<title>n07-&gt;n06</title>
<path fill="none" stroke="#000000" d="M946.8361,-22.6229C961.5683,-22.6229 980.9722,-22.6229 997.378,-22.6229"/>
<polygon fill="#000000" stroke="#000000" points="1007.6467,-22.6229 997.6467,-27.123 1002.6467,-22.623 997.6467,-22.623 997.6467,-22.623 997.6467,-22.623 1002.6467,-22.623 997.6466,-18.123 1007.6467,-22.6229 1007.6467,-22.6229"/>
<text text-anchor="middle" x="977.2225" y="-26.8229" font-family="Courier,monospace" font-size="14.00" fill="#000000">1/4</text>
</g>
<!-- n04 -->
<g id="node15" class="node">
<title>n04</title>
<ellipse fill="#d3d3d3" stroke="#000000" cx="1145.2835" cy="-53.6229" rx="22.7465" ry="22.7465"/>
<text text-anchor="middle" x="1145.2835" y="-49.4229" font-family="Courier,monospace" font-size="14.00" fill="#000000">13</text>
</g>
<!-- n05&#45;&gt;n04 -->
<g id="edge17" class="edge">
<title>n05-&gt;n04</title>
<path fill="none" stroke="#000000" d="M1052.3142,-79.5286C1069.6046,-74.7107 1093.9849,-67.9172 1113.4411,-62.4957"/>
<polygon fill="#000000" stroke="#000000" points="1123.1029,-59.8035 1114.6778,-66.8226 1118.2864,-61.1456 1113.4699,-62.4878 1113.4699,-62.4878 1113.4699,-62.4878 1118.2864,-61.1456 1112.262,-58.1529 1123.1029,-59.8035 1123.1029,-59.8035"/>
<text text-anchor="middle" x="1087.8634" y="-77.8229" font-family="Courier,monospace" font-size="14.00" fill="#000000">1/-4</text>
</g>
<!-- n06&#45;&gt;n04 -->
<g id="edge16" class="edge">
<title>n06-&gt;n04</title>
<path fill="none" stroke="#000000" d="M1052.6242,-27.6657C1067.4253,-31.128 1087.2854,-35.9606 1104.6606,-40.8229 1107.6269,-41.653 1110.7034,-42.5519 1113.7758,-43.4751"/>
<polygon fill="#000000" stroke="#000000" points="1123.4354,-46.4531 1112.5534,-47.8072 1118.6573,-44.98 1113.8792,-43.5069 1113.8792,-43.5069 1113.8792,-43.5069 1118.6573,-44.98 1115.205,-39.2067 1123.4354,-46.4531 1123.4354,-46.4531"/>
<text text-anchor="middle" x="1087.8634" y="-45.8229" font-family="Courier,monospace" font-size="14.00" fill="#000000">b</text>
</g>
<!-- n03 -->
<g id="node16" class="node">
<title>n03</title>
<ellipse fill="#d3d3d3" stroke="#000000" cx="1251.7252" cy="-53.6229" rx="22.7465" ry="22.7465"/>
<text text-anchor="middle" x="1251.7252" y="-49.4229" font-family="Courier,monospace" font-size="14.00" fill="#000000">14</text>
</g>
<!-- n04&#45;&gt;n03 -->
<g id="edge18" class="edge">
<title>n04-&gt;n03</title>
<path fill="none" stroke="#000000" d="M1168.1179,-53.6229C1182.8502,-53.6229 1202.2541,-53.6229 1218.6598,-53.6229"/>
<polygon fill="#000000" stroke="#000000" points="1228.9285,-53.6229 1218.9286,-58.123 1223.9285,-53.623 1218.9285,-53.623 1218.9285,-53.623 1218.9285,-53.623 1223.9285,-53.623 1218.9285,-49.123 1228.9285,-53.6229 1228.9285,-53.6229"/>
<text text-anchor="middle" x="1198.5043" y="-57.8229" font-family="Courier,monospace" font-size="14.00" fill="#000000">1/5</text>
</g>
<!-- n02 -->
<g id="node17" class="node">
<title>n02</title>
<ellipse fill="#d3d3d3" stroke="#000000" cx="1366.5654" cy="-88.6229" rx="22.7465" ry="22.7465"/>
<text text-anchor="middle" x="1366.5654" y="-84.4229" font-family="Courier,monospace" font-size="14.00" fill="#000000">15</text>
</g>
<!-- n03&#45;&gt;n02 -->
<g id="edge19" class="edge">
<title>n03-&gt;n02</title>
<path fill="none" stroke="#000000" d="M1273.596,-60.2885C1290.9972,-65.5919 1315.5796,-73.0839 1335.0965,-79.0321"/>
<polygon fill="#000000" stroke="#000000" points="1344.7759,-81.9821 1333.8984,-83.3712 1339.9931,-80.5244 1335.2103,-79.0667 1335.2103,-79.0667 1335.2103,-79.0667 1339.9931,-80.5244 1336.5222,-74.7622 1344.7759,-81.9821 1344.7759,-81.9821"/>
<text text-anchor="middle" x="1309.1453" y="-79.8229" font-family="Courier,monospace" font-size="14.00" fill="#000000">1/ε</text>
</g>
<!-- n00 -->
<g id="node18" class="node">
<title>n00</title>
<ellipse fill="#d3d3d3" stroke="#000000" cx="1600.2458" cy="-53.6229" rx="22.7278" ry="22.7278"/>
<ellipse fill="none" stroke="#000000" cx="1600.2458" cy="-53.6229" rx="26.7464" ry="26.7464"/>
<text text-anchor="middle" x="1600.2458" y="-49.4229" font-family="Courier,monospace" font-size="14.00" fill="#000000">17</text>
</g>
<!-- n03&#45;&gt;n00 -->
<g id="edge20" class="edge">
<title>n03-&gt;n00</title>
<path fill="none" stroke="#000000" d="M1274.5926,-53.6229C1333.5066,-53.6229 1490.9018,-53.6229 1563.1088,-53.6229"/>
<polygon fill="#000000" stroke="#000000" points="1573.5307,-53.6229 1563.5307,-58.123 1568.5307,-53.623 1563.5307,-53.623 1563.5307,-53.623 1563.5307,-53.623 1568.5307,-53.623 1563.5306,-49.123 1573.5307,-53.6229 1573.5307,-53.6229"/>
<text text-anchor="middle" x="1423.9855" y="-57.8229" font-family="Courier,monospace" font-size="14.00" fill="#000000">2/ε</text>
</g>
<!-- n01 -->
<g id="node19" class="node">
<title>n01</title>
<ellipse fill="#d3d3d3" stroke="#000000" cx="1481.4056" cy="-88.6229" rx="22.7465" ry="22.7465"/>
<text text-anchor="middle" x="1481.4056" y="-84.4229" font-family="Courier,monospace" font-size="14.00" fill="#000000">16</text>
</g>
<!-- n02&#45;&gt;n01 -->
<g id="edge21" class="edge">
<title>n02-&gt;n01</title>
<path fill="none" stroke="#000000" d="M1388.2346,-96.2726C1394.2908,-98.0665 1400.9291,-99.7178 1407.1883,-100.6229 1421.9654,-102.7598 1426.0056,-102.7598 1440.7827,-100.6229 1443.8145,-100.1845 1446.9352,-99.571 1450.0357,-98.851"/>
<polygon fill="#000000" stroke="#000000" points="1459.7364,-96.2726 1451.228,-103.1905 1454.9042,-97.557 1450.072,-98.8415 1450.072,-98.8415 1450.072,-98.8415 1454.9042,-97.557 1448.916,-94.4925 1459.7364,-96.2726 1459.7364,-96.2726"/>
<text text-anchor="middle" x="1423.9855" y="-105.8229" font-family="Courier,monospace" font-size="14.00" fill="#000000">b</text>
</g>
<!-- n01&#45;&gt;n02 -->
<g id="edge22" class="edge">
<title>n01-&gt;n02</title>
<path fill="none" stroke="#000000" d="M1459.1958,-82.9175C1453.2554,-81.6375 1446.8098,-80.4682 1440.7827,-79.8229 1425.9367,-78.2333 1422.0343,-78.2333 1407.1883,-79.8229 1404.4572,-80.1153 1401.6403,-80.5153 1398.8234,-80.9844"/>
<polygon fill="#000000" stroke="#000000" points="1388.7752,-82.9175 1397.745,-76.6093 1393.6852,-81.9729 1398.5951,-81.0283 1398.5951,-81.0283 1398.5951,-81.0283 1393.6852,-81.9729 1399.4453,-85.4473 1388.7752,-82.9175 1388.7752,-82.9175"/>
<text text-anchor="middle" x="1423.9855" y="-84.8229" font-family="Courier,monospace" font-size="14.00" fill="#000000">1/ε</text>
</g>
<!-- n01&#45;&gt;n00 -->
<g id="edge23" class="edge">
<title>n01-&gt;n00</title>
<path fill="none" stroke="#000000" d="M1503.2027,-82.2034C1520.3997,-77.1386 1544.739,-69.9704 1564.7397,-64.0799"/>
<polygon fill="#000000" stroke="#000000" points="1574.4501,-61.2201 1566.1288,-68.362 1569.6538,-62.6327 1564.8575,-64.0453 1564.8575,-64.0453 1564.8575,-64.0453 1569.6538,-62.6327 1563.5861,-59.7286 1574.4501,-61.2201 1574.4501,-61.2201"/>
<text text-anchor="middle" x="1538.8257" y="-80.8229" font-family="Courier,monospace" font-size="14.00" fill="#000000">2/ε</text>
</g>
</g>
</svg>