<?xml version="1.0" encoding="UTF-8" standalone="no"?><!DOCTYPE svg PUBLIC "-//W3C//DTD SVG 1.1//EN" "http://www.w3.org/Graphics/SVG/1.1/DTD/svg11.dtd"><!-- Generated by graphviz version 2.40.1 (20161225.0304)
 --><!-- Title: G Pages: 1 --><svg xmlns="http://www.w3.org/2000/svg" xmlns:xlink="http://www.w3.org/1999/xlink" width="1549pt" height="138pt" viewBox="0.00 0.00 1549.25 137.89">
<g id="graph0" class="graph" transform="scale(1 1) rotate(0) translate(4 133.8932)">
<title>G</title>
<polygon fill="#ffffff" stroke="transparent" points="-4,4 -4,-133.8932 1545.2507,-133.8932 1545.2507,4 -4,4"/>
<!-- n -->
<g id="node1" class="node">
<title>n</title>
<ellipse fill="#000000" stroke="#000000" cx="43.793" cy="-59.0932" rx="1.8" ry="1.8"/>
<text text-anchor="middle" x="20.9965" y="-44.6932" font-family="Courier,monospace" font-size="14.00" fill="#000000">Start</text>
</g>
<!-- n17 -->
<g id="node2" class="node">
<title>n17</title>
<ellipse fill="none" stroke="#000000" cx="105.2159" cy="-59.0932" rx="22.7465" ry="22.7465"/>
<text text-anchor="middle" x="105.2159" y="-54.8932" font-family="Courier,monospace" font-size="14.00" fill="#000000">17</text>
</g>
<!-- n&#45;&gt;n17 -->
<g id="edge1" class="edge">
<title>n-&gt;n17</title>
<path fill="none" stroke="#000000" stroke-dasharray="1,5" d="M45.8367,-59.0932C50.2035,-59.0932 60.9603,-59.0932 72.1378,-59.0932"/>
<polygon fill="#000000" stroke="#000000" points="82.3497,-59.0932 72.3498,-63.5933 77.3497,-59.0932 72.3497,-59.0933 72.3497,-59.0933 72.3497,-59.0933 77.3497,-59.0932 72.3497,-54.5933 82.3497,-59.0932 82.3497,-59.0932"/>
</g>
<!-- n15 -->
<g id="node3" class="node">
<title>n15</title>
<ellipse fill="#d3d3d3" stroke="#000000" cx="220.0561" cy="-91.0932" rx="22.7465" ry="22.7465"/>
<text text-anchor="middle" x="220.0561" y="-86.8932" font-family="Courier,monospace" font-size="14.00" fill="#000000">15</text>
</g>
<!-- n17&#45;&gt;n15 -->
<g id="edge2" class="edge">
<title>n17-&gt;n15</title>
<path fill="none" stroke="#000000" d="M127.0868,-65.1874C144.3771,-70.0054 168.7575,-76.7989 188.2137,-82.2203"/>
<polygon fill="#000000" stroke="#000000" points="197.8755,-84.9126 187.0346,-86.5631 193.059,-83.5704 188.2425,-82.2283 188.2425,-82.2283 188.2425,-82.2283 193.059,-83.5704 189.4504,-77.8934 197.8755,-84.9126 197.8755,-84.9126"/>
<text text-anchor="middle" x="162.636" y="-82.2932" font-family="Courier,monospace" font-size="14.00" fill="#000000">2/ε</text>
</g>
<!-- n14 -->
<g id="node4" class="node">
<title>n14</title>
<ellipse fill="#d3d3d3" stroke="#000000" cx="220.0561" cy="-28.0932" rx="22.7465" ry="22.7465"/>
<text text-anchor="middle" x="220.0561" y="-23.8932" font-family="Courier,monospace" font-size="14.00" fill="#000000">14</text>
</g>
<!-- n17&#45;&gt;n14 -->
<g id="edge3" class="edge">
<title>n17-&gt;n14</title>
<path fill="none" stroke="#000000" d="M127.0641,-51.9234C133.121,-50.0137 139.7149,-48.0069 145.8388,-46.2932 159.5489,-42.4565 174.8062,-38.6383 187.9045,-35.4973"/>
<polygon fill="#000000" stroke="#000000" points="197.8753,-33.136 189.1814,-39.8194 193.0098,-34.2883 188.1444,-35.4405 188.1444,-35.4405 188.1444,-35.4405 193.0098,-34.2883 187.1074,-31.0616 197.8753,-33.136 197.8753,-33.136"/>
<text text-anchor="middle" x="162.636" y="-51.2932" font-family="Courier,monospace" font-size="14.00" fill="#000000">1/ε</text>
</g>
<!-- n16 -->
<g id="node5" class="node">
<title>n16</title>
<ellipse fill="#d3d3d3" stroke="#000000" cx="398.1422" cy="-91.0932" rx="22.7465" ry="22.7465"/>
<text text-anchor="middle" x="398.1422" y="-86.8932" font-family="Courier,monospace" font-size="14.00" fill="#000000">16</text>
</g>
<!-- n15&#45;&gt;n16 -->
<g id="edge5" class="edge">
<title>n15-&gt;n16</title>
<path fill="none" stroke="#000000" d="M242.9732,-91.0932C273.9622,-91.0932 329.4312,-91.0932 364.9721,-91.0932"/>
<polygon fill="#000000" stroke="#000000" points="375.3131,-91.0932 365.3131,-95.5933 370.3131,-91.0932 365.3131,-91.0933 365.3131,-91.0933 365.3131,-91.0933 370.3131,-91.0932 365.313,-86.5933 375.3131,-91.0932 375.3131,-91.0932"/>
<text text-anchor="middle" x="277.4762" y="-95.2932" font-family="Courier,monospace" font-size="14.00" fill="#000000">1/-1</text>
</g>
<!-- n13 -->
<g id="node7" class="node">
<title>n13</title>
<ellipse fill="#d3d3d3" stroke="#000000" cx="334.8964" cy="-40.0932" rx="22.7465" ry="22.7465"/>
<text text-anchor="middle" x="334.8964" y="-35.8932" font-family="Courier,monospace" font-size="14.00" fill="#000000">13</text>
</g>
<!-- n14&#45;&gt;n13 -->
<g id="edge6" class="edge">
<title>n14-&gt;n13</title>
<path fill="none" stroke="#000000" d="M242.7449,-30.464C259.7321,-32.239 283.2156,-34.6929 302.2244,-36.6792"/>
<polygon fill="#000000" stroke="#000000" points="312.2548,-37.7273 301.8412,-41.1635 307.2818,-37.2076 302.3089,-36.6879 302.3089,-36.6879 302.3089,-36.6879 307.2818,-37.2076 302.7766,-32.2123 312.2548,-37.7273 312.2548,-37.7273"/>
<text text-anchor="middle" x="277.4762" y="-40.2932" font-family="Courier,monospace" font-size="14.00" fill="#000000">1/1</text>
</g>
<!-- n10 -->
<g id="node6" class="node">
<title>n10</title>
<ellipse fill="#d3d3d3" stroke="#000000" cx="691.0684" cy="-66.0932" rx="22.7465" ry="22.7465"/>
<text text-anchor="middle" x="691.0684" y="-61.8932" font-family="Courier,monospace" font-size="14.00" fill="#000000">10</text>
</g>
<!-- n16&#45;&gt;n10 -->
<g id="edge4" class="edge">
<title>n16-&gt;n10</title>
<path fill="none" stroke="#000000" d="M420.929,-91.4146C465.3782,-91.6928 566.6404,-90.6122 650.4455,-77.0932 653.3534,-76.6241 656.3528,-76.03 659.3428,-75.3618"/>
<polygon fill="#000000" stroke="#000000" points="669.3255,-72.8792 660.7072,-79.6597 664.4733,-74.0859 659.6211,-75.2927 659.6211,-75.2927 659.6211,-75.2927 664.4733,-74.0859 658.535,-70.9257 669.3255,-72.8792 669.3255,-72.8792"/>
<text text-anchor="middle" x="518.8081" y="-94.2932" font-family="Courier,monospace" font-size="14.00" fill="#000000">1/-2</text>
</g>
<!-- n09 -->
<g id="node10" class="node">
<title>n09</title>
<ellipse fill="#d3d3d3" stroke="#000000" cx="801.2857" cy="-93.0932" rx="18" ry="18"/>
<text text-anchor="middle" x="801.2857" y="-88.8932" font-family="Courier,monospace" font-size="14.00" fill="#000000">9</text>
</g>
<!-- n10&#45;&gt;n09 -->
<g id="edge11" class="edge">
<title>n10-&gt;n09</title>
<path fill="none" stroke="#000000" d="M713.1077,-71.4921C730.5993,-75.7771 755.1443,-81.7899 773.8981,-86.384"/>
<polygon fill="#000000" stroke="#000000" points="783.6395,-88.7704 772.856,-90.7617 778.7831,-87.5806 773.9267,-86.3909 773.9267,-86.3909 773.9267,-86.3909 778.7831,-87.5806 774.9974,-82.0202 783.6395,-88.7704 783.6395,-88.7704"/>
<text text-anchor="middle" x="748.4885" y="-87.2932" font-family="Courier,monospace" font-size="14.00" fill="#000000">2/ε</text>
</g>
<!-- n08 -->
<g id="node11" class="node">
<title>n08</title>
<ellipse fill="#d3d3d3" stroke="#000000" cx="801.2857" cy="-39.0932" rx="18" ry="18"/>
<text text-anchor="middle" x="801.2857" y="-34.8932" font-family="Courier,monospace" font-size="14.00" fill="#000000">8</text>
</g>
<!-- n10&#45;&gt;n08 -->
<g id="edge12" class="edge">
<title>n10-&gt;n08</title>
<path fill="none" stroke="#000000" d="M712.962,-60.1388C719.0191,-58.5279 725.6017,-56.811 731.6913,-55.2932 745.4212,-51.8709 760.7321,-48.2823 773.4895,-45.3549"/>
<polygon fill="#000000" stroke="#000000" points="783.5144,-43.0695 774.7648,-49.6797 778.6395,-44.1809 773.7646,-45.2922 773.7646,-45.2922 773.7646,-45.2922 778.6395,-44.1809 772.7643,-40.9048 783.5144,-43.0695 783.5144,-43.0695"/>
<text text-anchor="middle" x="748.4885" y="-60.2932" font-family="Courier,monospace" font-size="14.00" fill="#000000">1/ε</text>
</g>
<!-- n12 -->
<g id="node8" class="node">
<title>n12</title>
<ellipse fill="#d3d3d3" stroke="#000000" cx="461.388" cy="-40.0932" rx="22.7465" ry="22.7465"/>
<text text-anchor="middle" x="461.388" y="-35.8932" font-family="Courier,monospace" font-size="14.00" fill="#000000">12</text>
</g>
<!-- n13&#45;&gt;n12 -->
<g id="edge7" class="edge">
<title>n13-&gt;n12</title>
<path fill="none" stroke="#000000" d="M357.803,-40.0932C377.5038,-40.0932 406.1669,-40.0932 428.35,-40.0932"/>
<polygon fill="#000000" stroke="#000000" points="438.6517,-40.0932 428.6518,-44.5933 433.6517,-40.0932 428.6517,-40.0933 428.6517,-40.0933 428.6517,-40.0933 433.6517,-40.0932 428.6517,-35.5933 438.6517,-40.0932 438.6517,-40.0932"/>
<text text-anchor="middle" x="398.1422" y="-44.2932" font-family="Courier,monospace" font-size="14.00" fill="#000000">a</text>
</g>
<!-- n11 -->
<g id="node9" class="node">
<title>n11</title>
<ellipse fill="#d3d3d3" stroke="#000000" cx="576.2282" cy="-40.0932" rx="22.7465" ry="22.7465"/>
<text text-anchor="middle" x="576.2282" y="-35.8932" font-family="Courier,monospace" font-size="14.00" fill="#000000">11</text>
</g>
<!-- n12&#45;&gt;n11 -->
<g id="edge8" class="edge">
<title>n12-&gt;n11</title>
<path fill="none" stroke="#000000" d="M484.0767,-40.0932C501.064,-40.0932 524.5475,-40.0932 543.5562,-40.0932"/>
<polygon fill="#000000" stroke="#000000" points="553.5866,-40.0932 543.5867,-44.5933 548.5866,-40.0932 543.5866,-40.0933 543.5866,-40.0933 543.5866,-40.0933 548.5866,-40.0932 543.5866,-35.5933 553.5866,-40.0932 553.5866,-40.0932"/>
<text text-anchor="middle" x="518.8081" y="-44.2932" font-family="Courier,monospace" font-size="14.00" fill="#000000">1/2</text>
</g>
<!-- n11&#45;&gt;n14 -->
<g id="edge9" class="edge">
<title>n11-&gt;n14</title>
<path fill="none" stroke="#000000" d="M555.5118,-30.6604C537.1588,-22.8534 509.4112,-12.375 484.0109,-8.0932 408.7451,4.5946 388.1664,.0421 312.2734,-8.0932 291.9849,-10.268 269.6089,-15.061 251.9794,-19.4096"/>
<polygon fill="#000000" stroke="#000000" points="242.1996,-21.8955 250.7828,-15.0706 247.0455,-20.6637 251.8914,-19.4319 251.8914,-19.4319 251.8914,-19.4319 247.0455,-20.6637 253,-23.7932 242.1996,-21.8955 242.1996,-21.8955"/>
<text text-anchor="middle" x="398.1422" y="-6.2932" font-family="Courier,monospace" font-size="14.00" fill="#000000">1/ε</text>
</g>
<!-- n11&#45;&gt;n10 -->
<g id="edge10" class="edge">
<title>n11-&gt;n10</title>
<path fill="none" stroke="#000000" d="M598.3706,-45.1062C615.6082,-49.0088 639.771,-54.4794 659.1056,-58.8567"/>
<polygon fill="#000000" stroke="#000000" points="668.9941,-61.0955 658.2472,-63.2762 664.1175,-59.9914 659.2409,-58.8873 659.2409,-58.8873 659.2409,-58.8873 664.1175,-59.9914 660.2346,-54.4984 668.9941,-61.0955 668.9941,-61.0955"/>
<text text-anchor="middle" x="633.6483" y="-61.2932" font-family="Courier,monospace" font-size="14.00" fill="#000000">2/ε</text>
</g>
<!-- n06 -->
<g id="node12" class="node">
<title>n06</title>
<ellipse fill="#d3d3d3" stroke="#000000" cx="906.8801" cy="-93.0932" rx="18" ry="18"/>
<text text-anchor="middle" x="906.8801" y="-88.8932" font-family="Courier,monospace" font-size="14.00" fill="#000000">6</text>
</g>
<!-- n09&#45;&gt;n06 -->
<g id="edge13" class="edge">
<title>n09-&gt;n06</title>
<path fill="none" stroke="#000000" d="M819.6789,-93.0932C835.956,-93.0932 859.9604,-93.0932 878.6653,-93.0932"/>
<polygon fill="#000000" stroke="#000000" points="888.6978,-93.0932 878.6978,-97.5933 883.6978,-93.0932 878.6978,-93.0933 878.6978,-93.0933 878.6978,-93.0933 883.6978,-93.0932 878.6977,-88.5933 888.6978,-93.0932 888.6978,-93.0932"/>
<text text-anchor="middle" x="854.0829" y="-97.2932" font-family="Courier,monospace" font-size="14.00" fill="#000000">1/-3</text>
</g>
<!-- n07 -->
<g id="node13" class="node">
<title>n07</title>
<ellipse fill="#d3d3d3" stroke="#000000" cx="906.8801" cy="-39.0932" rx="18" ry="18"/>
<text text-anchor="middle" x="906.8801" y="-34.8932" font-family="Courier,monospace" font-size="14.00" fill="#000000">7</text>
</g>
<!-- n08&#45;&gt;n07 -->
<g id="edge14" class="edge">
<title>n08-&gt;n07</title>
<path fill="none" stroke="#000000" d="M819.6789,-39.0932C835.956,-39.0932 859.9604,-39.0932 878.6653,-39.0932"/>
<polygon fill="#000000" stroke="#000000" points="888.6978,-39.0932 878.6978,-43.5933 883.6978,-39.0932 878.6978,-39.0933 878.6978,-39.0933 878.6978,-39.0933 883.6978,-39.0932 878.6977,-34.5933 888.6978,-39.0932 888.6978,-39.0932"/>
<text text-anchor="middle" x="854.0829" y="-43.2932" font-family="Courier,monospace" font-size="14.00" fill="#000000">b</text>
</g>
<!-- n05 -->
<g id="node14" class="node">
<title>n05</title>
<ellipse fill="#d3d3d3" stroke="#000000" cx="1004.0759" cy="-66.0932" rx="18" ry="18"/>
<text text-anchor="middle" x="1004.0759" y="-61.8932" font-family="Courier,monospace" font-size="14.00" fill="#000000">5</text>
</g>
<!-- n06&#45;&gt;n05 -->
<g id="edge16" class="edge">
<title>n06-&gt;n05</title>
<path fill="none" stroke="#000000" d="M924.2568,-88.2661C938.8172,-84.2214 959.8617,-78.3754 976.6869,-73.7016"/>
<polygon fill="#000000" stroke="#000000" points="986.522,-70.9695 978.0913,-77.9819 981.7044,-72.3078 976.8869,-73.6461 976.8869,-73.6461 976.8869,-73.6461 981.7044,-72.3078 975.6824,-69.3103 986.522,-70.9695 986.522,-70.9695"/>
<text text-anchor="middle" x="955.478" y="-86.2932" font-family="Courier,monospace" font-size="14.00" fill="#000000">a</text>
</g>
<!-- n07&#45;&gt;n05 -->
<g id="edge15" class="edge">
<title>n07-&gt;n05</title>
<path fill="none" stroke="#000000" d="M924.8161,-41.2553C937.1554,-43.0135 953.8248,-45.927 968.0759,-50.2932 971.5082,-51.3447 975.0497,-52.6311 978.5106,-54.0114"/>
<polygon fill="#000000" stroke="#000000" points="987.8936,-58.0333 976.9294,-58.2296 983.298,-56.0634 978.7023,-54.0935 978.7023,-54.0935 978.7023,-54.0935 983.298,-56.0634 980.4752,-49.9575 987.8936,-58.0333 987.8936,-58.0333"/>
<text text-anchor="middle" x="955.478" y="-55.2932" font-family="Courier,monospace" font-size="14.00" fill="#000000">1/3</text>
</g>
<!-- n04 -->
<g id="node15" class="node">
<title>n04</title>
<ellipse fill="#d3d3d3" stroke="#000000" cx="1101.2717" cy="-66.0932" rx="18" ry="18"/>
<text text-anchor="middle" x="1101.2717" y="-61.8932" font-family="Courier,monospace" font-size="14.00" fill="#000000">4</text>
</g>
<!-- n05&#45;&gt;n04 -->
<g id="edge17" class="edge">
<title>n05-&gt;n04</title>
<path fill="none" stroke="#000000" d="M1022.3577,-66.0932C1036.6124,-66.0932 1056.6609,-66.0932 1072.9827,-66.0932"/>
<polygon fill="#000000" stroke="#000000" points="1083.0719,-66.0932 1073.072,-70.5933 1078.0719,-66.0932 1073.0719,-66.0933 1073.0719,-66.0933 1073.0719,-66.0933 1078.0719,-66.0932 1073.0719,-61.5933 1083.0719,-66.0932 1083.0719,-66.0932"/>
<text text-anchor="middle" x="1052.6738" y="-70.2932" font-family="Courier,monospace" font-size="14.00" fill="#000000">1/4</text>
</g>
<!-- n03 -->
<g id="node16" class="node">
<title>n03</title>
<ellipse fill="#d3d3d3" stroke="#000000" cx="1206.8661" cy="-96.0932" rx="18" ry="18"/>
<text text-anchor="middle" x="1206.8661" y="-91.8932" font-family="Courier,monospace" font-size="14.00" fill="#000000">3</text>
</g>
<!-- n04&#45;&gt;n03 -->
<g id="edge18" class="edge">
<title>n04-&gt;n03</title>
<path fill="none" stroke="#000000" d="M1118.7085,-71.0471C1135.2929,-75.7588 1160.492,-82.918 1179.7075,-88.3772"/>
<polygon fill="#000000" stroke="#000000" points="1189.4035,-91.1319 1178.5543,-92.7276 1184.5938,-89.7654 1179.7842,-88.3989 1179.7842,-88.3989 1179.7842,-88.3989 1184.5938,-89.7654 1181.014,-84.0702 1189.4035,-91.1319 1189.4035,-91.1319"/>
<text text-anchor="middle" x="1154.0689" y="-89.2932" font-family="Courier,monospace" font-size="14.00" fill="#000000">1/ε</text>
</g>
<!-- n01 -->
<g id="node17" class="node">
<title>n01</title>
<ellipse fill="#d3d3d3" stroke="#000000" cx="1418.0549" cy="-66.0932" rx="18" ry="18"/>
<text text-anchor="middle" x="1418.0549" y="-61.8932" font-family="Courier,monospace" font-size="14.00" fill="#000000">1</text>
</g>
<!-- n04&#45;&gt;n01 -->
<g id="edge19" class="edge">
<title>n04-&gt;n01</title>
<path fill="none" stroke="#000000" d="M1119.6726,-66.0932C1172.7245,-66.0932 1326.2408,-66.0932 1389.8905,-66.0932"/>
<polygon fill="#000000" stroke="#000000" points="1399.998,-66.0932 1389.9981,-70.5933 1394.998,-66.0932 1389.998,-66.0933 1389.998,-66.0933 1389.998,-66.0933 1394.998,-66.0932 1389.998,-61.5933 1399.998,-66.0932 1399.998,-66.0932"/>
<text text-anchor="middle" x="1259.6633" y="-70.2932" font-family="Courier,monospace" font-size="14.00" fill="#000000">2/ε</text>
</g>
<!-- n02 -->
<g id="node18" class="node">
<title>n02</title>
<ellipse fill="#d3d3d3" stroke="#000000" cx="1312.4605" cy="-96.0932" rx="18" ry="18"/>
<text text-anchor="middle" x="1312.4605" y="-91.8932" font-family="Courier,monospace" font-size="14.00" fill="#000000">2</text>
</g>
<!-- n03&#45;&gt;n02 -->
<g id="edge20" class="edge">
<title>n03-&gt;n02</title>
<path fill="none" stroke="#000000" d="M1222.923,-104.3765C1229.0033,-107.0823 1236.094,-109.7387 1242.8661,-111.0932 1257.507,-114.0213 1261.8196,-114.0213 1276.4605,-111.0932 1279.9524,-110.3948 1283.529,-109.3503 1287.0081,-108.1313"/>
<polygon fill="#000000" stroke="#000000" points="1296.4036,-104.3765 1288.7877,-112.2662 1291.7607,-106.232 1287.1177,-108.0875 1287.1177,-108.0875 1287.1177,-108.0875 1291.7607,-106.232 1285.4477,-103.9089 1296.4036,-104.3765 1296.4036,-104.3765"/>
<text text-anchor="middle" x="1259.6633" y="-117.2932" font-family="Courier,monospace" font-size="14.00" fill="#000000">b</text>
</g>
<!-- n00 -->
<g id="node19" class="node">
<title>n00</title>
<ellipse fill="#d3d3d3" stroke="#000000" cx="1519.2507" cy="-66.0932" rx="18" ry="18"/>
<ellipse fill="none" stroke="#000000" cx="1519.2507" cy="-66.0932" rx="22" ry="22"/>
<text text-anchor="middle" x="1519.2507" y="-61.8932" font-family="Courier,monospace" font-size="14.00" fill="#000000">0</text>
</g>
<!-- n01&#45;&gt;n00 -->
<g id="edge23" class="edge">
<title>n01-&gt;n00</title>
<path fill="none" stroke="#000000" d="M1436.1467,-66.0932C1450.1373,-66.0932 1469.8779,-66.0932 1486.6088,-66.0932"/>
<polygon fill="#000000" stroke="#000000" points="1497.0781,-66.0932 1487.0781,-70.5933 1492.0781,-66.0932 1487.0781,-66.0933 1487.0781,-66.0933 1487.0781,-66.0933 1492.0781,-66.0932 1487.078,-61.5933 1497.0781,-66.0932 1497.0781,-66.0932"/>
<text text-anchor="middle" x="1466.6528" y="-70.2932" font-family="Courier,monospace" font-size="14.00" fill="#000000">1/5</text>
</g>
<!-- n02&#45;&gt;n03 -->
<g id="edge21" class="edge">
<title>n02-&gt;n03</title>
<path fill="none" stroke="#000000" d="M1294.5835,-92.6352C1288.8217,-91.676 1282.3923,-90.7679 1276.4605,-90.2932 1261.5773,-89.1019 1257.7494,-89.1019 1242.8661,-90.2932 1240.271,-90.5009 1237.5806,-90.7915 1234.8925,-91.1331"/>
<polygon fill="#000000" stroke="#000000" points="1224.7432,-92.6352 1233.9765,-86.7196 1229.6893,-91.9032 1234.6354,-91.1711 1234.6354,-91.1711 1234.6354,-91.1711 1229.6893,-91.9032 1235.2943,-95.6226 1224.7432,-92.6352 1224.7432,-92.6352"/>
<text text-anchor="middle" x="1259.6633" y="-94.2932" font-family="Courier,monospace" font-size="14.00" fill="#000000">1/ε</text>
</g>
<!-- n02&#45;&gt;n01 -->
<g id="edge22" class="edge">
<title>n02-&gt;n01</title>
<path fill="none" stroke="#000000" d="M1329.8973,-91.1393C1346.4817,-86.4276 1371.6808,-79.2683 1390.8963,-73.8091"/>
<polygon fill="#000000" stroke="#000000" points="1400.5923,-71.0544 1392.2028,-78.1161 1395.7826,-72.4209 1390.973,-73.7874 1390.973,-73.7874 1390.973,-73.7874 1395.7826,-72.4209 1389.7431,-69.4587 1400.5923,-71.0544 1400.5923,-71.0544"/>
<text text-anchor="middle" x="1365.2577" y="-89.2932" font-family="Courier,monospace" font-size="14.00" fill="#000000">2/ε</text>
</g>
</g>
</svg>