<?xml version="1.0" encoding="UTF-8" standalone="no"?><!DOCTYPE svg PUBLIC "-//W3C//DTD SVG 1.1//EN" "http://www.w3.org/Graphics/SVG/1.1/DTD/svg11.dtd"><!-- Generated by graphviz version 2.40.1 (20161225.0304)
 --><!-- Title: G Pages: 1 --><svg xmlns="http://www.w3.org/2000/svg" xmlns:xlink="http://www.w3.org/1999/xlink" width="849pt" height="94pt" viewBox="0.00 0.00 848.56 94.05">
<g id="graph0" class="graph" transform="scale(1 1) rotate(0) translate(4 90.0549)">
<title>G</title>
<polygon fill="#ffffff" stroke="transparent" points="-4,4 -4,-90.0549 844.558,-90.0549 844.558,4 -4,4"/>
<!-- n -->
<g id="node1" class="node">
<title>n</title>
<ellipse fill="#000000" stroke="#000000" cx="43.793" cy="-22.2549" rx="1.8" ry="1.8"/>
<text text-anchor="middle" x="20.9965" y="-7.8549" font-family="Courier,monospace" font-size="14.00" fill="#000000">Start</text>
</g>
<!-- n7 -->
<g id="node2" class="node">
<title>n7</title>
<ellipse fill="none" stroke="#000000" cx="100.593" cy="-22.2549" rx="18" ry="18"/>
<text text-anchor="middle" x="100.593" y="-18.0549" font-family="Courier,monospace" font-size="14.00" fill="#000000">7</text>
</g>
<!-- n&#45;&gt;n7 -->
<g id="edge1" class="edge">
<title>n-&gt;n7</title>
<path fill="none" stroke="#000000" stroke-dasharray="1,5" d="M45.6828,-22.2549C50.0452,-22.2549 61.3037,-22.2549 72.4988,-22.2549"/>
<polygon fill="#000000" stroke="#000000" points="82.5626,-22.2549 72.5626,-26.755 77.5626,-22.255 72.5626,-22.255 72.5626,-22.255 72.5626,-22.255 77.5626,-22.255 72.5626,-17.755 82.5626,-22.2549 82.5626,-22.2549"/>
</g>
<!-- n6 -->
<g id="node3" class="node">
<title>n6</title>
<ellipse fill="#d3d3d3" stroke="#000000" cx="206.1874" cy="-52.2549" rx="18" ry="18"/>
<text text-anchor="middle" x="206.1874" y="-48.0549" font-family="Courier,monospace" font-size="14.00" fill="#000000">6</text>
</g>
<!-- n7&#45;&gt;n6 -->
<g id="edge2" class="edge">
<title>n7-&gt;n6</title>
<path fill="none" stroke="#000000" d="M118.0298,-27.2088C134.6141,-31.9205 159.8132,-39.0797 179.0288,-44.539"/>
<polygon fill="#000000" stroke="#000000" points="188.7247,-47.2937 177.8756,-48.8894 183.9151,-45.9272 179.1054,-44.5607 179.1054,-44.5607 179.1054,-44.5607 183.9151,-45.9272 180.3352,-40.232 188.7247,-47.2937 188.7247,-47.2937"/>
<text text-anchor="middle" x="153.3902" y="-45.4549" font-family="Courier,monospace" font-size="14.00" fill="#000000">1/ε</text>
</g>
<!-- n4 -->
<g id="node4" class="node">
<title>n4</title>
<ellipse fill="#d3d3d3" stroke="#000000" cx="417.3762" cy="-22.2549" rx="18" ry="18"/>
<text text-anchor="middle" x="417.3762" y="-18.0549" font-family="Courier,monospace" font-size="14.00" fill="#000000">4</text>
</g>
<!-- n7&#45;&gt;n4 -->
<g id="edge3" class="edge">
<title>n7-&gt;n4</title>
<path fill="none" stroke="#000000" d="M118.9939,-22.2549C172.0457,-22.2549 325.5621,-22.2549 389.2118,-22.2549"/>
<polygon fill="#000000" stroke="#000000" points="399.3193,-22.2549 389.3194,-26.755 394.3193,-22.255 389.3193,-22.255 389.3193,-22.255 389.3193,-22.255 394.3193,-22.255 389.3193,-17.755 399.3193,-22.2549 399.3193,-22.2549"/>
<text text-anchor="middle" x="258.9846" y="-26.4549" font-family="Courier,monospace" font-size="14.00" fill="#000000">2/ε</text>
</g>
<!-- n5 -->
<g id="node5" class="node">
<title>n5</title>
<ellipse fill="#d3d3d3" stroke="#000000" cx="311.7818" cy="-52.2549" rx="18" ry="18"/>
<text text-anchor="middle" x="311.7818" y="-48.0549" font-family="Courier,monospace" font-size="14.00" fill="#000000">5</text>
</g>
<!-- n6&#45;&gt;n5 -->
<g id="edge4" class="edge">
<title>n6-&gt;n5</title>
<path fill="none" stroke="#000000" d="M222.2443,-60.5382C228.3246,-63.2441 235.4153,-65.9005 242.1874,-67.2549 256.8283,-70.1831 261.1409,-70.1831 275.7818,-67.2549 279.2737,-66.5565 282.8503,-65.512 286.3293,-64.293"/>
<polygon fill="#000000" stroke="#000000" points="295.7249,-60.5382 288.1089,-68.4279 291.0819,-62.3937 286.439,-64.2493 286.439,-64.2493 286.439,-64.2493 291.0819,-62.3937 284.769,-60.0706 295.7249,-60.5382 295.7249,-60.5382"/>
<text text-anchor="middle" x="258.9846" y="-73.4549" font-family="Courier,monospace" font-size="14.00" fill="#000000">a</text>
</g>
<!-- n3 -->
<g id="node6" class="node">
<title>n3</title>
<ellipse fill="#d3d3d3" stroke="#000000" cx="497.7748" cy="-22.2549" rx="18" ry="18"/>
<text text-anchor="middle" x="497.7748" y="-18.0549" font-family="Courier,monospace" font-size="14.00" fill="#000000">3</text>
</g>
<!-- n4&#45;&gt;n3 -->
<g id="edge7" class="edge">
<title>n4-&gt;n3</title>
<path fill="none" stroke="#000000" d="M435.6199,-22.2549C445.591,-22.2549 458.1617,-22.2549 469.3848,-22.2549"/>
<polygon fill="#000000" stroke="#000000" points="479.6033,-22.2549 469.6034,-26.755 474.6033,-22.2549 469.6033,-22.255 469.6033,-22.255 469.6033,-22.255 474.6033,-22.2549 469.6033,-17.755 479.6033,-22.2549 479.6033,-22.2549"/>
<text text-anchor="middle" x="457.5755" y="-26.4549" font-family="Courier,monospace" font-size="14.00" fill="#000000">a</text>
</g>
<!-- n4&#45;&gt;n3 -->
<g id="edge8" class="edge">
<title>n4-&gt;n3</title>
<path fill="none" stroke="#000000" d="M430.8966,-10.2942C439.4572,-4.1661 450.9222,1.4549 461.7748,-1.4549 466.0103,-2.5905 470.2628,-4.3585 474.2859,-6.3947"/>
<polygon fill="#000000" stroke="#000000" points="483.1403,-11.4615 472.2259,-10.4006 478.8006,-8.9782 474.4609,-6.4948 474.4609,-6.4948 474.4609,-6.4948 478.8006,-8.9782 476.6959,-2.5891 483.1403,-11.4615 483.1403,-11.4615"/>
<text text-anchor="middle" x="457.5755" y="-6.4549" font-family="Courier,monospace" font-size="14.00" fill="#000000">b</text>
</g>
<!-- n5&#45;&gt;n6 -->
<g id="edge5" class="edge">
<title>n5-&gt;n6</title>
<path fill="none" stroke="#000000" d="M293.9048,-48.797C288.143,-47.8378 281.7136,-46.9297 275.7818,-46.4549 260.8986,-45.2637 257.0706,-45.2637 242.1874,-46.4549 239.5922,-46.6626 236.9018,-46.9533 234.2138,-47.2949"/>
<polygon fill="#000000" stroke="#000000" points="224.0644,-48.797 233.2978,-42.8813 229.0105,-48.0649 233.9567,-47.3328 233.9567,-47.3328 233.9567,-47.3328 229.0105,-48.0649 234.6155,-51.7843 224.0644,-48.797 224.0644,-48.797"/>
<text text-anchor="middle" x="258.9846" y="-50.4549" font-family="Courier,monospace" font-size="14.00" fill="#000000">1/ε</text>
</g>
<!-- n5&#45;&gt;n4 -->
<g id="edge6" class="edge">
<title>n5-&gt;n4</title>
<path fill="none" stroke="#000000" d="M329.2186,-47.301C345.8029,-42.5893 371.002,-35.4301 390.2176,-29.9708"/>
<polygon fill="#000000" stroke="#000000" points="399.9135,-27.2162 391.524,-34.2778 395.1039,-28.5826 390.2942,-29.9491 390.2942,-29.9491 390.2942,-29.9491 395.1039,-28.5826 389.0644,-25.6204 399.9135,-27.2162 399.9135,-27.2162"/>
<text text-anchor="middle" x="364.579" y="-45.4549" font-family="Courier,monospace" font-size="14.00" fill="#000000">2/ε</text>
</g>
<!-- n2 -->
<g id="node7" class="node">
<title>n2</title>
<ellipse fill="#d3d3d3" stroke="#000000" cx="603.3692" cy="-52.2549" rx="18" ry="18"/>
<text text-anchor="middle" x="603.3692" y="-48.0549" font-family="Courier,monospace" font-size="14.00" fill="#000000">2</text>
</g>
<!-- n3&#45;&gt;n2 -->
<g id="edge9" class="edge">
<title>n3-&gt;n2</title>
<path fill="none" stroke="#000000" d="M515.2116,-27.2088C531.7959,-31.9205 556.995,-39.0797 576.2106,-44.539"/>
<polygon fill="#000000" stroke="#000000" points="585.9065,-47.2937 575.0574,-48.8894 581.0969,-45.9272 576.2872,-44.5607 576.2872,-44.5607 576.2872,-44.5607 581.0969,-45.9272 577.517,-40.232 585.9065,-47.2937 585.9065,-47.2937"/>
<text text-anchor="middle" x="550.572" y="-45.4549" font-family="Courier,monospace" font-size="14.00" fill="#000000">1/ε</text>
</g>
<!-- n0 -->
<g id="node8" class="node">
<title>n0</title>
<ellipse fill="#d3d3d3" stroke="#000000" cx="818.558" cy="-22.2549" rx="18" ry="18"/>
<ellipse fill="none" stroke="#000000" cx="818.558" cy="-22.2549" rx="22" ry="22"/>
<text text-anchor="middle" x="818.558" y="-18.0549" font-family="Courier,monospace" font-size="14.00" fill="#000000">0</text>
</g>
<!-- n3&#45;&gt;n0 -->
<g id="edge10" class="edge">
<title>n3-&gt;n0</title>
<path fill="none" stroke="#000000" d="M515.9406,-22.2549C568.169,-22.2549 719.2622,-22.2549 786.0986,-22.2549"/>
<polygon fill="#000000" stroke="#000000" points="796.446,-22.2549 786.4461,-26.755 791.446,-22.2549 786.446,-22.255 786.446,-22.255 786.446,-22.255 791.446,-22.2549 786.446,-17.755 796.446,-22.2549 796.446,-22.2549"/>
<text text-anchor="middle" x="656.1664" y="-26.4549" font-family="Courier,monospace" font-size="14.00" fill="#000000">2/ε</text>
</g>
<!-- n1 -->
<g id="node9" class="node">
<title>n1</title>
<ellipse fill="#d3d3d3" stroke="#000000" cx="708.9636" cy="-52.2549" rx="18" ry="18"/>
<text text-anchor="middle" x="708.9636" y="-48.0549" font-family="Courier,monospace" font-size="14.00" fill="#000000">1</text>
</g>
<!-- n2&#45;&gt;n1 -->
<g id="edge11" class="edge">
<title>n2-&gt;n1</title>
<path fill="none" stroke="#000000" d="M619.4261,-60.5382C625.5064,-63.2441 632.5971,-65.9005 639.3692,-67.2549 654.0101,-70.1831 658.3227,-70.1831 672.9636,-67.2549 676.4555,-66.5565 680.0321,-65.512 683.5111,-64.293"/>
<polygon fill="#000000" stroke="#000000" points="692.9067,-60.5382 685.2907,-68.4279 688.2637,-62.3937 683.6208,-64.2493 683.6208,-64.2493 683.6208,-64.2493 688.2637,-62.3937 681.9508,-60.0706 692.9067,-60.5382 692.9067,-60.5382"/>
<text text-anchor="middle" x="656.1664" y="-73.4549" font-family="Courier,monospace" font-size="14.00" fill="#000000">b</text>
</g>
<!-- n1&#45;&gt;n2 -->
<g id="edge12" class="edge">
<title>n1-&gt;n2</title>
<path fill="none" stroke="#000000" d="M691.0866,-48.797C685.3248,-47.8378 678.8954,-46.9297 672.9636,-46.4549 658.0804,-45.2637 654.2524,-45.2637 639.3692,-46.4549 636.774,-46.6626 634.0836,-46.9533 631.3956,-47.2949"/>
<polygon fill="#000000" stroke="#000000" points="621.2462,-48.797 630.4796,-42.8813 626.1923,-48.0649 631.1385,-47.3328 631.1385,-47.3328 631.1385,-47.3328 626.1923,-48.0649 631.7973,-51.7843 621.2462,-48.797 621.2462,-48.797"/>
<text text-anchor="middle" x="656.1664" y="-50.4549" font-family="Courier,monospace" font-size="14.00" fill="#000000">1/ε</text>
</g>
<!-- n1&#45;&gt;n0 -->
<g id="edge13" class="edge">
<title>n1-&gt;n0</title>
<path fill="none" stroke="#000000" d="M726.5718,-47.4349C742.9571,-42.9496 767.7418,-36.1652 787.4575,-30.7683"/>
<polygon fill="#000000" stroke="#000000" points="797.2341,-28.092 788.7771,-35.0727 792.4115,-29.4122 787.5889,-30.7323 787.5889,-30.7323 787.5889,-30.7323 792.4115,-29.4122 786.4008,-26.392 797.2341,-28.092 797.2341,-28.092"/>
<text text-anchor="middle" x="761.7608" y="-45.4549" font-family="Courier,monospace" font-size="14.00" fill="#000000">2/ε</text>
</g>
</g>
</svg>