<?xml version="1.0" encoding="UTF-8" standalone="no"?><!DOCTYPE svg PUBLIC "-//W3C//DTD SVG 1.1//EN" "http://www.w3.org/Graphics/SVG/1.1/DTD/svg11.dtd"><!-- Generated by graphviz version 2.40.1 (20161225.0304)
 --><!-- Title: G Pages: 1 --><svg xmlns="http://www.w3.org/2000/svg" xmlns:xlink="http://www.w3.org/1999/xlink" width="1256pt" height="94pt" viewBox="0.00 0.00 1255.83 94.42">
<g id="graph0" class="graph" transform="scale(1 1) rotate(0) translate(4 90.4229)">
<title>G</title>
<polygon fill="#ffffff" stroke="transparent" points="-4,4 -4,-90.4229 1251.8328,-90.4229 1251.8328,4 -4,4"/>
<!-- n -->
<g id="node1" class="node">
<title>n</title>
<ellipse fill="#000000" stroke="#000000" cx="43.793" cy="-22.6229" rx="1.8" ry="1.8"/>
<text text-anchor="middle" x="20.9965" y="-8.2229" font-family="Courier,monospace" font-size="14.00" fill="#000000">Start</text>
</g>
<!-- n11 -->
<g id="node2" class="node">
<title>n11</title>
<ellipse fill="none" stroke="#000000" cx="105.2159" cy="-22.6229" rx="22.7465" ry="22.7465"/>
<text text-anchor="middle" x="105.2159" y="-18.4229" font-family="Courier,monospace" font-size="14.00" fill="#000000">11</text>
</g>
<!-- n&#45;&gt;n11 -->
<g id="edge1" class="edge">
<title>n-&gt;n11</title>
<path fill="none" stroke="#000000" stroke-dasharray="1,5" d="M45.8367,-22.6229C50.2035,-22.6229 60.9603,-22.6229 72.1378,-22.6229"/>
<polygon fill="#000000" stroke="#000000" points="82.3497,-22.6229 72.3498,-27.123 77.3497,-22.623 72.3497,-22.623 72.3497,-22.623 72.3497,-22.623 77.3497,-22.623 72.3497,-18.123 82.3497,-22.6229 82.3497,-22.6229"/>
</g>
<!-- n10 -->
<g id="node3" class="node">
<title>n10</title>
<ellipse fill="#d3d3d3" stroke="#000000" cx="211.6575" cy="-22.6229" rx="22.7465" ry="22.7465"/>
<text text-anchor="middle" x="211.6575" y="-18.4229" font-family="Courier,monospace" font-size="14.00" fill="#000000">10</text>
</g>
<!-- n11&#45;&gt;n10 -->
<g id="edge2" class="edge">
<title>n11-&gt;n10</title>
<path fill="none" stroke="#000000" d="M128.0503,-22.6229C142.7825,-22.6229 162.1864,-22.6229 178.5922,-22.6229"/>
<polygon fill="#000000" stroke="#000000" points="188.8609,-22.6229 178.8609,-27.123 183.8609,-22.623 178.8609,-22.623 178.8609,-22.623 178.8609,-22.623 183.8609,-22.623 178.8609,-18.123 188.8609,-22.6229 188.8609,-22.6229"/>
<text text-anchor="middle" x="158.4367" y="-26.8229" font-family="Courier,monospace" font-size="14.00" fill="#000000">1/1</text>
</g>
<!-- n09 -->
<g id="node4" class="node">
<title>n09</title>
<ellipse fill="#d3d3d3" stroke="#000000" cx="321.8748" cy="-52.6229" rx="18" ry="18"/>
<text text-anchor="middle" x="321.8748" y="-48.4229" font-family="Courier,monospace" font-size="14.00" fill="#000000">9</text>
</g>
<!-- n10&#45;&gt;n09 -->
<g id="edge3" class="edge">
<title>n10-&gt;n09</title>
<path fill="none" stroke="#000000" d="M233.6967,-28.6218C251.1884,-33.3828 275.7334,-40.0637 294.4872,-45.1683"/>
<polygon fill="#000000" stroke="#000000" points="304.2286,-47.8198 293.3978,-49.5354 299.4041,-46.5066 294.5797,-45.1934 294.5797,-45.1934 294.5797,-45.1934 299.4041,-46.5066 295.7615,-40.8513 304.2286,-47.8198 304.2286,-47.8198"/>
<text text-anchor="middle" x="269.0776" y="-45.8229" font-family="Courier,monospace" font-size="14.00" fill="#000000">1/ε</text>
</g>
<!-- n07 -->
<g id="node5" class="node">
<title>n07</title>
<ellipse fill="#d3d3d3" stroke="#000000" cx="533.0636" cy="-22.6229" rx="18" ry="18"/>
<text text-anchor="middle" x="533.0636" y="-18.4229" font-family="Courier,monospace" font-size="14.00" fill="#000000">7</text>
</g>
<!-- n10&#45;&gt;n07 -->
<g id="edge4" class="edge">
<title>n10-&gt;n07</title>
<path fill="none" stroke="#000000" d="M234.5146,-22.6229C291.8781,-22.6229 441.8203,-22.6229 504.6834,-22.6229"/>
<polygon fill="#000000" stroke="#000000" points="515.026,-22.6229 505.026,-27.123 510.026,-22.623 505.026,-22.623 505.026,-22.623 505.026,-22.623 510.026,-22.623 505.0259,-18.123 515.026,-22.6229 515.026,-22.6229"/>
<text text-anchor="middle" x="374.672" y="-26.8229" font-family="Courier,monospace" font-size="14.00" fill="#000000">2/ε</text>
</g>
<!-- n08 -->
<g id="node6" class="node">
<title>n08</title>
<ellipse fill="#d3d3d3" stroke="#000000" cx="427.4692" cy="-52.6229" rx="18" ry="18"/>
<text text-anchor="middle" x="427.4692" y="-48.4229" font-family="Courier,monospace" font-size="14.00" fill="#000000">8</text>
</g>
<!-- n09&#45;&gt;n08 -->
<g id="edge5" class="edge">
<title>n09-&gt;n08</title>
<path fill="none" stroke="#000000" d="M337.9317,-60.9062C344.012,-63.6121 351.1027,-66.2685 357.8748,-67.6229 372.5157,-70.5511 376.8283,-70.5511 391.4692,-67.6229 394.9611,-66.9245 398.5377,-65.88 402.0168,-64.661"/>
<polygon fill="#000000" stroke="#000000" points="411.4123,-60.9062 403.7964,-68.7959 406.7694,-62.7618 402.1264,-64.6173 402.1264,-64.6173 402.1264,-64.6173 406.7694,-62.7618 400.4564,-60.4386 411.4123,-60.9062 411.4123,-60.9062"/>
<text text-anchor="middle" x="374.672" y="-73.8229" font-family="Courier,monospace" font-size="14.00" fill="#000000">a</text>
</g>
<!-- n06 -->
<g id="node7" class="node">
<title>n06</title>
<ellipse fill="#d3d3d3" stroke="#000000" cx="630.2594" cy="-22.6229" rx="18" ry="18"/>
<text text-anchor="middle" x="630.2594" y="-18.4229" font-family="Courier,monospace" font-size="14.00" fill="#000000">6</text>
</g>
<!-- n07&#45;&gt;n06 -->
<g id="edge8" class="edge">
<title>n07-&gt;n06</title>
<path fill="none" stroke="#000000" d="M551.3454,-22.6229C565.6001,-22.6229 585.6486,-22.6229 601.9704,-22.6229"/>
<polygon fill="#000000" stroke="#000000" points="612.0596,-22.6229 602.0597,-27.123 607.0596,-22.623 602.0596,-22.623 602.0596,-22.623 602.0596,-22.623 607.0596,-22.623 602.0596,-18.123 612.0596,-22.6229 612.0596,-22.6229"/>
<text text-anchor="middle" x="581.6615" y="-26.8229" font-family="Courier,monospace" font-size="14.00" fill="#000000">1/2</text>
</g>
<!-- n08&#45;&gt;n09 -->
<g id="edge6" class="edge">
<title>n08-&gt;n09</title>
<path fill="none" stroke="#000000" d="M409.5922,-49.165C403.8304,-48.2058 397.401,-47.2977 391.4692,-46.8229 376.586,-45.6317 372.7581,-45.6317 357.8748,-46.8229 355.2797,-47.0306 352.5893,-47.3213 349.9012,-47.6629"/>
<polygon fill="#000000" stroke="#000000" points="339.7519,-49.165 348.9852,-43.2493 344.698,-48.4329 349.6441,-47.7008 349.6441,-47.7008 349.6441,-47.7008 344.698,-48.4329 350.303,-52.1524 339.7519,-49.165 339.7519,-49.165"/>
<text text-anchor="middle" x="374.672" y="-50.8229" font-family="Courier,monospace" font-size="14.00" fill="#000000">1/ε</text>
</g>
<!-- n08&#45;&gt;n07 -->
<g id="edge7" class="edge">
<title>n08-&gt;n07</title>
<path fill="none" stroke="#000000" d="M444.906,-47.669C461.4904,-42.9573 486.6894,-35.7981 505.905,-30.3388"/>
<polygon fill="#000000" stroke="#000000" points="515.601,-27.5842 507.2115,-34.6458 510.7913,-28.9506 505.9816,-30.3171 505.9816,-30.3171 505.9816,-30.3171 510.7913,-28.9506 504.7518,-25.9884 515.601,-27.5842 515.601,-27.5842"/>
<text text-anchor="middle" x="480.2664" y="-45.8229" font-family="Courier,monospace" font-size="14.00" fill="#000000">2/ε</text>
</g>
<!-- n05 -->
<g id="node8" class="node">
<title>n05</title>
<ellipse fill="#d3d3d3" stroke="#000000" cx="710.658" cy="-22.6229" rx="18" ry="18"/>
<text text-anchor="middle" x="710.658" y="-18.4229" font-family="Courier,monospace" font-size="14.00" fill="#000000">5</text>
</g>
<!-- n06&#45;&gt;n05 -->
<g id="edge9" class="edge">
<title>n06-&gt;n05</title>
<path fill="none" stroke="#000000" d="M648.5031,-22.6229C658.4742,-22.6229 671.045,-22.6229 682.2681,-22.6229"/>
<polygon fill="#000000" stroke="#000000" points="692.4866,-22.6229 682.4866,-27.123 687.4866,-22.623 682.4866,-22.623 682.4866,-22.623 682.4866,-22.623 687.4866,-22.623 682.4865,-18.123 692.4866,-22.6229 692.4866,-22.6229"/>
<text text-anchor="middle" x="670.4587" y="-26.8229" font-family="Courier,monospace" font-size="14.00" fill="#000000">a</text>
</g>
<!-- n06&#45;&gt;n05 -->
<g id="edge10" class="edge">
<title>n06-&gt;n05</title>
<path fill="none" stroke="#000000" d="M643.7798,-10.6622C652.3404,-4.5341 663.8055,1.0869 674.658,-1.8229 678.8935,-2.9585 683.1461,-4.7265 687.1691,-6.7627"/>
<polygon fill="#000000" stroke="#000000" points="696.0236,-11.8295 685.1091,-10.7686 691.6838,-9.3462 687.3441,-6.8628 687.3441,-6.8628 687.3441,-6.8628 691.6838,-9.3462 689.5791,-2.9571 696.0236,-11.8295 696.0236,-11.8295"/>
<text text-anchor="middle" x="670.4587" y="-6.8229" font-family="Courier,monospace" font-size="14.00" fill="#000000">b</text>
</g>
<!-- n04 -->
<g id="node9" class="node">
<title>n04</title>
<ellipse fill="#d3d3d3" stroke="#000000" cx="807.8538" cy="-22.6229" rx="18" ry="18"/>
<text text-anchor="middle" x="807.8538" y="-18.4229" font-family="Courier,monospace" font-size="14.00" fill="#000000">4</text>
</g>
<!-- n05&#45;&gt;n04 -->
<g id="edge11" class="edge">
<title>n05-&gt;n04</title>
<path fill="none" stroke="#000000" d="M728.9398,-22.6229C743.1945,-22.6229 763.243,-22.6229 779.5648,-22.6229"/>
<polygon fill="#000000" stroke="#000000" points="789.654,-22.6229 779.6541,-27.123 784.654,-22.623 779.654,-22.623 779.654,-22.623 779.654,-22.623 784.654,-22.623 779.654,-18.123 789.654,-22.6229 789.654,-22.6229"/>
<text text-anchor="middle" x="759.2559" y="-26.8229" font-family="Courier,monospace" font-size="14.00" fill="#000000">1/3</text>
</g>
<!-- n03 -->
<g id="node10" class="node">
<title>n03</title>
<ellipse fill="#d3d3d3" stroke="#000000" cx="913.4482" cy="-52.6229" rx="18" ry="18"/>
<text text-anchor="middle" x="913.4482" y="-48.4229" font-family="Courier,monospace" font-size="14.00" fill="#000000">3</text>
</g>
<!-- n04&#45;&gt;n03 -->
<g id="edge12" class="edge">
<title>n04-&gt;n03</title>
<path fill="none" stroke="#000000" d="M825.2906,-27.5768C841.875,-32.2885 867.074,-39.4477 886.2896,-44.907"/>
<polygon fill="#000000" stroke="#000000" points="895.9856,-47.6617 885.1364,-49.2574 891.1759,-46.2952 886.3662,-44.9287 886.3662,-44.9287 886.3662,-44.9287 891.1759,-46.2952 887.5961,-40.6 895.9856,-47.6617 895.9856,-47.6617"/>
<text text-anchor="middle" x="860.651" y="-45.8229" font-family="Courier,monospace" font-size="14.00" fill="#000000">1/ε</text>
</g>
<!-- n01 -->
<g id="node11" class="node">
<title>n01</title>
<ellipse fill="#d3d3d3" stroke="#000000" cx="1124.637" cy="-22.6229" rx="18" ry="18"/>
<text text-anchor="middle" x="1124.637" y="-18.4229" font-family="Courier,monospace" font-size="14.00" fill="#000000">1</text>
</g>
<!-- n04&#45;&gt;n01 -->
<g id="edge13" class="edge">
<title>n04-&gt;n01</title>
<path fill="none" stroke="#000000" d="M826.2547,-22.6229C879.3066,-22.6229 1032.8229,-22.6229 1096.4726,-22.6229"/>
<polygon fill="#000000" stroke="#000000" points="1106.5801,-22.6229 1096.5802,-27.123 1101.5801,-22.623 1096.5801,-22.623 1096.5801,-22.623 1096.5801,-22.623 1101.5801,-22.623 1096.5801,-18.123 1106.5801,-22.6229 1106.5801,-22.6229"/>
<text text-anchor="middle" x="966.2454" y="-26.8229" font-family="Courier,monospace" font-size="14.00" fill="#000000">2/ε</text>
</g>
<!-- n02 -->
<g id="node12" class="node">
<title>n02</title>
<ellipse fill="#d3d3d3" stroke="#000000" cx="1019.0426" cy="-52.6229" rx="18" ry="18"/>
<text text-anchor="middle" x="1019.0426" y="-48.4229" font-family="Courier,monospace" font-size="14.00" fill="#000000">2</text>
</g>
<!-- n03&#45;&gt;n02 -->
<g id="edge14" class="edge">
<title>n03-&gt;n02</title>
<path fill="none" stroke="#000000" d="M929.5051,-60.9062C935.5854,-63.6121 942.6761,-66.2685 949.4482,-67.6229 964.0891,-70.5511 968.4017,-70.5511 983.0426,-67.6229 986.5345,-66.9245 990.1111,-65.88 993.5902,-64.661"/>
<polygon fill="#000000" stroke="#000000" points="1002.9857,-60.9062 995.3698,-68.7959 998.3428,-62.7618 993.6998,-64.6173 993.6998,-64.6173 993.6998,-64.6173 998.3428,-62.7618 992.0298,-60.4386 1002.9857,-60.9062 1002.9857,-60.9062"/>
<text text-anchor="middle" x="966.2454" y="-73.8229" font-family="Courier,monospace" font-size="14.00" fill="#000000">b</text>
</g>
<!-- n00 -->
<g id="node13" class="node">
<title>n00</title>
<ellipse fill="#d3d3d3" stroke="#000000" cx="1225.8328" cy="-22.6229" rx="18" ry="18"/>
<ellipse fill="none" stroke="#000000" cx="1225.8328" cy="-22.6229" rx="22" ry="22"/>
<text text-anchor="middle" x="1225.8328" y="-18.4229" font-family="Courier,monospace" font-size="14.00" fill="#000000">0</text>
</g>
<!-- n01&#45;&gt;n00 -->
<g id="edge17" class="edge">
<title>n01-&gt;n00</title>
<path fill="none" stroke="#000000" d="M1142.7288,-22.6229C1156.7194,-22.6229 1176.46,-22.6229 1193.1909,-22.6229"/>
<polygon fill="#000000" stroke="#000000" points="1203.6602,-22.6229 1193.6602,-27.123 1198.6602,-22.623 1193.6602,-22.623 1193.6602,-22.623 1193.6602,-22.623 1198.6602,-22.623 1193.6601,-18.123 1203.6602,-22.6229 1203.6602,-22.6229"/>
<text text-anchor="middle" x="1173.2349" y="-26.8229" font-family="Courier,monospace" font-size="14.00" fill="#000000">1/4</text>
</g>
<!-- n02&#45;&gt;n03 -->
<g id="edge15" class="edge">
<title>n02-&gt;n03</title>
<path fill="none" stroke="#000000" d="M1001.1656,-49.165C995.4038,-48.2058 988.9744,-47.2977 983.0426,-46.8229 968.1594,-45.6317 964.3315,-45.6317 949.4482,-46.8229 946.8531,-47.0306 944.1627,-47.3213 941.4746,-47.6629"/>
<polygon fill="#000000" stroke="#000000" points="931.3253,-49.165 940.5586,-43.2493 936.2714,-48.4329 941.2175,-47.7008 941.2175,-47.7008 941.2175,-47.7008 936.2714,-48.4329 941.8764,-52.1524 931.3253,-49.165 931.3253,-49.165"/>
<text text-anchor="middle" x="966.2454" y="-50.8229" font-family="Courier,monospace" font-size="14.00" fill="#000000">1/ε</text>
</g>
<!-- n02&#45;&gt;n01 -->
<g id="edge16" class="edge">
<title>n02-&gt;n01</title>
<path fill="none" stroke="#000000" d="M1036.4794,-47.669C1053.0638,-42.9573 1078.2628,-35.7981 1097.4784,-30.3388"/>
<polygon fill="#000000" stroke="#000000" points="1107.1744,-27.5842 1098.7849,-34.6458 1102.3647,-28.9506 1097.555,-30.3171 1097.555,-30.3171 1097.555,-30.3171 1102.3647,-28.9506 1096.3252,-25.9884 1107.1744,-27.5842 1107.1744,-27.5842"/>
<text text-anchor="middle" x="1071.8398" y="-45.8229" font-family="Courier,monospace" font-size="14.00" fill="#000000">2/ε</text>
</g>
</g>
</svg>