<?xml version="1.0" encoding="UTF-8" standalone="no"?><!DOCTYPE svg PUBLIC "-//W3C//DTD SVG 1.1//EN" "http://www.w3.org/Graphics/SVG/1.1/DTD/svg11.dtd"><!-- Generated by graphviz version 2.40.1 (20161225.0304)
 --><!-- Title: G Pages: 1 --><svg xmlns="http://www.w3.org/2000/svg" xmlns:xlink="http://www.w3.org/1999/xlink" width="882pt" height="94pt" viewBox="0.00 0.00 882.15 93.80">
<g id="graph0" class="graph" transform="scale(1 1) rotate(0) translate(4 89.8)">
<title>G</title>
<polygon fill="#ffffff" stroke="transparent" points="-4,4 -4,-89.8 878.1524,-89.8 878.1524,4 -4,4"/>
<!-- n -->
<g id="node1" class="node">
<title>n</title>
<ellipse fill="#000000" stroke="#000000" cx="43.793" cy="-22" rx="1.8" ry="1.8"/>
<text text-anchor="middle" x="20.9965" y="-7.6" font-family="Courier,monospace" font-size="14.00" fill="#000000">Start</text>
</g>
<!-- n7 -->
<g id="node2" class="node">
<title>n7</title>
<ellipse fill="none" stroke="#000000" cx="100.593" cy="-22" rx="18" ry="18"/>
<text text-anchor="middle" x="100.593" y="-17.8" font-family="Courier,monospace" font-size="14.00" fill="#000000">7</text>
</g>
<!-- n&#45;&gt;n7 -->
<g id="edge1" class="edge">
<title>n-&gt;n7</title>
<path fill="none" stroke="#000000" stroke-dasharray="1,5" d="M45.6828,-22C50.0452,-22 61.3037,-22 72.4988,-22"/>
<polygon fill="#000000" stroke="#000000" points="82.5626,-22 72.5626,-26.5001 77.5626,-22 72.5626,-22.0001 72.5626,-22.0001 72.5626,-22.0001 77.5626,-22 72.5626,-17.5001 82.5626,-22 82.5626,-22"/>
</g>
<!-- n6 -->
<g id="node3" class="node">
<title>n6</title>
<ellipse fill="#d3d3d3" stroke="#000000" cx="206.1874" cy="-52" rx="18" ry="18"/>
<text text-anchor="middle" x="206.1874" y="-47.8" font-family="Courier,monospace" font-size="14.00" fill="#000000">6</text>
</g>
<!-- n7&#45;&gt;n6 -->
<g id="edge2" class="edge">
<title>n7-&gt;n6</title>
<path fill="none" stroke="#000000" d="M118.0298,-26.9539C134.6141,-31.6656 159.8132,-38.8248 179.0288,-44.2841"/>
<polygon fill="#000000" stroke="#000000" points="188.7247,-47.0388 177.8756,-48.6345 183.9151,-45.6723 179.1054,-44.3058 179.1054,-44.3058 179.1054,-44.3058 183.9151,-45.6723 180.3352,-39.9771 188.7247,-47.0388 188.7247,-47.0388"/>
<text text-anchor="middle" x="153.3902" y="-45.2" font-family="Courier,monospace" font-size="14.00" fill="#000000">1/ε</text>
</g>
<!-- n4 -->
<g id="node4" class="node">
<title>n4</title>
<ellipse fill="#d3d3d3" stroke="#000000" cx="417.3762" cy="-22" rx="18" ry="18"/>
<text text-anchor="middle" x="417.3762" y="-17.8" font-family="Courier,monospace" font-size="14.00" fill="#000000">4</text>
</g>
<!-- n7&#45;&gt;n4 -->
<g id="edge3" class="edge">
<title>n7-&gt;n4</title>
<path fill="none" stroke="#000000" d="M118.9939,-22C172.0457,-22 325.5621,-22 389.2118,-22"/>
<polygon fill="#000000" stroke="#000000" points="399.3193,-22 389.3194,-26.5001 394.3193,-22 389.3193,-22.0001 389.3193,-22.0001 389.3193,-22.0001 394.3193,-22 389.3193,-17.5001 399.3193,-22 399.3193,-22"/>
<text text-anchor="middle" x="258.9846" y="-26.2" font-family="Courier,monospace" font-size="14.00" fill="#000000">2/ε</text>
</g>
<!-- n5 -->
<g id="node5" class="node">
<title>n5</title>
<ellipse fill="#d3d3d3" stroke="#000000" cx="311.7818" cy="-52" rx="18" ry="18"/>
<text text-anchor="middle" x="311.7818" y="-47.8" font-family="Courier,monospace" font-size="14.00" fill="#000000">5</text>
</g>
<!-- n6&#45;&gt;n5 -->
<g id="edge4" class="edge">
<title>n6-&gt;n5</title>
<path fill="none" stroke="#000000" d="M222.2443,-60.2833C228.3246,-62.9892 235.4153,-65.6456 242.1874,-67 256.8283,-69.9282 261.1409,-69.9282 275.7818,-67 279.2737,-66.3016 282.8503,-65.2571 286.3293,-64.0381"/>
<polygon fill="#000000" stroke="#000000" points="295.7249,-60.2833 288.1089,-68.173 291.0819,-62.1388 286.439,-63.9944 286.439,-63.9944 286.439,-63.9944 291.0819,-62.1388 284.769,-59.8157 295.7249,-60.2833 295.7249,-60.2833"/>
<text text-anchor="middle" x="258.9846" y="-73.2" font-family="Courier,monospace" font-size="14.00" fill="#000000">a</text>
</g>
<!-- n3 -->
<g id="node6" class="node">
<title>n3</title>
<ellipse fill="#d3d3d3" stroke="#000000" cx="531.3692" cy="-22" rx="18" ry="18"/>
<text text-anchor="middle" x="531.3692" y="-17.8" font-family="Courier,monospace" font-size="14.00" fill="#000000">3</text>
</g>
<!-- n4&#45;&gt;n3 -->
<g id="edge7" class="edge">
<title>n4-&gt;n3</title>
<path fill="none" stroke="#000000" d="M435.4387,-22C453.5912,-22 481.8363,-22 502.985,-22"/>
<polygon fill="#000000" stroke="#000000" points="513.0137,-22 503.0138,-26.5001 508.0137,-22 503.0137,-22.0001 503.0137,-22.0001 503.0137,-22.0001 508.0137,-22 503.0137,-17.5001 513.0137,-22 513.0137,-22"/>
<text text-anchor="middle" x="474.3727" y="-26.2" font-family="Courier,monospace" font-size="14.00" fill="#000000">[a-b]</text>
</g>
<!-- n5&#45;&gt;n6 -->
<g id="edge5" class="edge">
<title>n5-&gt;n6</title>
<path fill="none" stroke="#000000" d="M293.9048,-48.5421C288.143,-47.5829 281.7136,-46.6748 275.7818,-46.2 260.8986,-45.0088 257.0706,-45.0088 242.1874,-46.2 239.5922,-46.4077 236.9018,-46.6984 234.2138,-47.04"/>
<polygon fill="#000000" stroke="#000000" points="224.0644,-48.5421 233.2978,-42.6264 229.0105,-47.81 233.9567,-47.0779 233.9567,-47.0779 233.9567,-47.0779 229.0105,-47.81 234.6155,-51.5294 224.0644,-48.5421 224.0644,-48.5421"/>
<text text-anchor="middle" x="258.9846" y="-50.2" font-family="Courier,monospace" font-size="14.00" fill="#000000">1/ε</text>
</g>
<!-- n5&#45;&gt;n4 -->
<g id="edge6" class="edge">
<title>n5-&gt;n4</title>
<path fill="none" stroke="#000000" d="M329.2186,-47.0461C345.8029,-42.3344 371.002,-35.1752 390.2176,-29.7159"/>
<polygon fill="#000000" stroke="#000000" points="399.9135,-26.9612 391.524,-34.0229 395.1039,-28.3277 390.2942,-29.6942 390.2942,-29.6942 390.2942,-29.6942 395.1039,-28.3277 389.0644,-25.3655 399.9135,-26.9612 399.9135,-26.9612"/>
<text text-anchor="middle" x="364.579" y="-45.2" font-family="Courier,monospace" font-size="14.00" fill="#000000">2/ε</text>
</g>
<!-- n2 -->
<g id="node7" class="node">
<title>n2</title>
<ellipse fill="#d3d3d3" stroke="#000000" cx="636.9636" cy="-52" rx="18" ry="18"/>
<text text-anchor="middle" x="636.9636" y="-47.8" font-family="Courier,monospace" font-size="14.00" fill="#000000">2</text>
</g>
<!-- n3&#45;&gt;n2 -->
<g id="edge8" class="edge">
<title>n3-&gt;n2</title>
<path fill="none" stroke="#000000" d="M548.806,-26.9539C565.3903,-31.6656 590.5894,-38.8248 609.805,-44.2841"/>
<polygon fill="#000000" stroke="#000000" points="619.5009,-47.0388 608.6518,-48.6345 614.6913,-45.6723 609.8816,-44.3058 609.8816,-44.3058 609.8816,-44.3058 614.6913,-45.6723 611.1114,-39.9771 619.5009,-47.0388 619.5009,-47.0388"/>
<text text-anchor="middle" x="584.1664" y="-45.2" font-family="Courier,monospace" font-size="14.00" fill="#000000">1/ε</text>
</g>
<!-- n0 -->
<g id="node8" class="node">
<title>n0</title>
<ellipse fill="#d3d3d3" stroke="#000000" cx="852.1524" cy="-22" rx="18" ry="18"/>
<ellipse fill="none" stroke="#000000" cx="852.1524" cy="-22" rx="22" ry="22"/>
<text text-anchor="middle" x="852.1524" y="-17.8" font-family="Courier,monospace" font-size="14.00" fill="#000000">0</text>
</g>
<!-- n3&#45;&gt;n0 -->
<g id="edge9" class="edge">
<title>n3-&gt;n0</title>
<path fill="none" stroke="#000000" d="M549.535,-22C601.7634,-22 752.8566,-22 819.693,-22"/>
<polygon fill="#000000" stroke="#000000" points="830.0404,-22 820.0405,-26.5001 825.0404,-22 820.0404,-22.0001 820.0404,-22.0001 820.0404,-22.0001 825.0404,-22 820.0404,-17.5001 830.0404,-22 830.0404,-22"/>
<text text-anchor="middle" x="689.7608" y="-26.2" font-family="Courier,monospace" font-size="14.00" fill="#000000">2/ε</text>
</g>
<!-- n1 -->
<g id="node9" class="node">
<title>n1</title>
<ellipse fill="#d3d3d3" stroke="#000000" cx="742.558" cy="-52" rx="18" ry="18"/>
<text text-anchor="middle" x="742.558" y="-47.8" font-family="Courier,monospace" font-size="14.00" fill="#000000">1</text>
</g>
<!-- n2&#45;&gt;n1 -->
<g id="edge10" class="edge">
<title>n2-&gt;n1</title>
<path fill="none" stroke="#000000" d="M653.0205,-60.2833C659.1008,-62.9892 666.1915,-65.6456 672.9636,-67 687.6045,-69.9282 691.9171,-69.9282 706.558,-67 710.0499,-66.3016 713.6265,-65.2571 717.1055,-64.0381"/>
<polygon fill="#000000" stroke="#000000" points="726.5011,-60.2833 718.8851,-68.173 721.8581,-62.1388 717.2152,-63.9944 717.2152,-63.9944 717.2152,-63.9944 721.8581,-62.1388 715.5452,-59.8157 726.5011,-60.2833 726.5011,-60.2833"/>
<text text-anchor="middle" x="689.7608" y="-73.2" font-family="Courier,monospace" font-size="14.00" fill="#000000">b</text>
</g>
<!-- n1&#45;&gt;n2 -->
<g id="edge11" class="edge">
<title>n1-&gt;n2</title>
<path fill="none" stroke="#000000" d="M724.681,-48.5421C718.9192,-47.5829 712.4898,-46.6748 706.558,-46.2 691.6748,-45.0088 687.8468,-45.0088 672.9636,-46.2 670.3684,-46.4077 667.678,-46.6984 664.99,-47.04"/>
<polygon fill="#000000" stroke="#000000" points="654.8406,-48.5421 664.074,-42.6264 659.7867,-47.81 664.7329,-47.0779 664.7329,-47.0779 664.7329,-47.0779 659.7867,-47.81 665.3917,-51.5294 654.8406,-48.5421 654.8406,-48.5421"/>
<text text-anchor="middle" x="689.7608" y="-50.2" font-family="Courier,monospace" font-size="14.00" fill="#000000">1/ε</text>
</g>
<!-- n1&#45;&gt;n0 -->
<g id="edge12" class="edge">
<title>n1-&gt;n0</title>
<path fill="none" stroke="#000000" d="M760.1662,-47.18C776.5515,-42.6947 801.3362,-35.9103 821.0519,-30.5134"/>
<polygon fill="#000000" stroke="#000000" points="830.8285,-27.8371 822.3715,-34.8178 826.0059,-29.1573 821.1833,-30.4774 821.1833,-30.4774 821.1833,-30.4774 826.0059,-29.1573 819.9952,-26.1371 830.8285,-27.8371 830.8285,-27.8371"/>
<text text-anchor="middle" x="795.3552" y="-45.2" font-family="Courier,monospace" font-size="14.00" fill="#000000">2/ε</text>
</g>
</g>
</svg>