<?xml version="1.0" encoding="UTF-8" standalone="no"?><!DOCTYPE svg PUBLIC "-//W3C//DTD SVG 1.1//EN" "http://www.w3.org/Graphics/SVG/1.1/DTD/svg11.dtd"><!-- Generated by graphviz version 2.40.1 (20161225.0304)
 --><!-- Title: G Pages: 1 --><svg xmlns="http://www.w3.org/2000/svg" xmlns:xlink="http://www.w3.org/1999/xlink" width="636pt" height="431pt" viewBox="0.00 0.00 635.55 431.00">
<g id="graph0" class="graph" transform="scale(1 1) rotate(0) translate(4 427)">
<title>G</title>
<polygon fill="#ffffff" stroke="transparent" points="-4,4 -4,-427 631.5482,-427 631.5482,4 -4,4"/>
<!-- n -->
<g id="node1" class="node">
<title>n</title>
<ellipse fill="#000000" stroke="#000000" cx="43.793" cy="-81" rx="1.8" ry="1.8"/>
<text text-anchor="middle" x="20.9965" y="-66.6" font-family="Courier,monospace" font-size="14.00" fill="#000000">Start</text>
</g>
<!-- n0 -->
<g id="node2" class="node">
<title>n0</title>
<ellipse fill="none" stroke="#000000" cx="116.793" cy="-81" rx="18" ry="18"/>
<text text-anchor="middle" x="116.793" y="-76.8" font-family="Courier,monospace" font-size="14.00" fill="#000000">0</text>
</g>
<!-- n&#45;&gt;n0 -->
<g id="edge1" class="edge">
<title>n-&gt;n0</title>
<path fill="none" stroke="#000000" stroke-dasharray="1,5" d="M45.5975,-81C51.5613,-81 71.2352,-81 88.3938,-81"/>
<polygon fill="#000000" stroke="#000000" points="98.6073,-81 88.6074,-85.5001 93.6073,-81 88.6073,-81.0001 88.6073,-81.0001 88.6073,-81.0001 93.6073,-81 88.6073,-76.5001 98.6073,-81 98.6073,-81"/>
</g>
<!-- n1 -->
<g id="node3" class="node">
<title>n1</title>
<ellipse fill="#d3d3d3" stroke="#000000" cx="263.1846" cy="-299" rx="18" ry="18"/>
<ellipse fill="none" stroke="#000000" cx="263.1846" cy="-299" rx="22" ry="22"/>
<text text-anchor="middle" x="263.1846" y="-294.8" font-family="Courier,monospace" font-size="14.00" fill="#000000">1</text>
</g>
<!-- n0&#45;&gt;n1 -->
<g id="edge2" class="edge">
<title>n0-&gt;n1</title>
<path fill="none" stroke="#000000" d="M123.3708,-97.989C137.4146,-132.7484 173.0191,-213.3106 221.1846,-268 225.5085,-272.9096 230.7335,-277.5153 236.0075,-281.5981"/>
<polygon fill="#000000" stroke="#000000" points="244.2133,-287.552 233.4766,-285.3214 240.1663,-284.6156 236.1194,-281.6792 236.1194,-281.6792 236.1194,-281.6792 240.1663,-284.6156 238.7622,-278.037 244.2133,-287.552 244.2133,-287.552"/>
<text text-anchor="middle" x="177.9888" y="-316.4" font-family="Courier,monospace" font-size="14.00" fill="#000000">a</text>
<text text-anchor="middle" x="177.9888" y="-299.6" font-family="Courier,monospace" font-size="14.00" fill="#000000">11←p</text>
<text text-anchor="middle" x="177.9888" y="-282.8" font-family="Courier,monospace" font-size="14.00" fill="#000000">12←n</text>
<text text-anchor="middle" x="177.9888" y="-266" font-family="Courier,monospace" font-size="14.00" fill="#000000">13←n</text>
<text text-anchor="middle" x="177.9888" y="-249.2" font-family="Courier,monospace" font-size="14.00" fill="#000000">14←p</text>
</g>
<!-- n2 -->
<g id="node4" class="node">
<title>n2</title>
<ellipse fill="#d3d3d3" stroke="#000000" cx="433.1706" cy="-132" rx="18" ry="18"/>
<ellipse fill="none" stroke="#000000" cx="433.1706" cy="-132" rx="22" ry="22"/>
<text text-anchor="middle" x="433.1706" y="-127.8" font-family="Courier,monospace" font-size="14.00" fill="#000000">2</text>
</g>
<!-- n0&#45;&gt;n2 -->
<g id="edge3" class="edge">
<title>n0-&gt;n2</title>
<path fill="none" stroke="#000000" d="M134.4491,-77.4661C168.1104,-71.3585 243.6009,-60.697 305.1846,-74 341.5519,-81.8558 380.0132,-100.9375 405.1655,-115.0807"/>
<polygon fill="#000000" stroke="#000000" points="414.1215,-120.2257 403.2089,-119.1464 409.786,-117.7351 405.4505,-115.2444 405.4505,-115.2444 405.4505,-115.2444 409.786,-117.7351 407.6921,-111.3424 414.1215,-120.2257 414.1215,-120.2257"/>
<text text-anchor="middle" x="263.1846" y="-145.4" font-family="Courier,monospace" font-size="14.00" fill="#000000">b</text>
<text text-anchor="middle" x="263.1846" y="-128.6" font-family="Courier,monospace" font-size="14.00" fill="#000000">12←n</text>
<text text-anchor="middle" x="263.1846" y="-111.8" font-family="Courier,monospace" font-size="14.00" fill="#000000">13←n</text>
<text text-anchor="middle" x="263.1846" y="-95" font-family="Courier,monospace" font-size="14.00" fill="#000000">14←p</text>
<text text-anchor="middle" x="263.1846" y="-78.2" font-family="Courier,monospace" font-size="14.00" fill="#000000">15←p</text>
</g>
<!-- n1&#45;&gt;n1 -->
<g id="edge4" class="edge">
<title>n1-&gt;n1</title>
<path fill="none" stroke="#000000" d="M248.9727,-315.8518C244.666,-327.5156 249.4034,-339 263.1846,-339 272.8745,-339 278.0933,-333.3223 278.8409,-325.8967"/>
<polygon fill="#000000" stroke="#000000" points="277.3965,-315.8518 283.274,-325.1095 278.1082,-320.8009 278.8199,-325.75 278.8199,-325.75 278.8199,-325.75 278.1082,-320.8009 274.3657,-326.3905 277.3965,-315.8518 277.3965,-315.8518"/>
<text text-anchor="middle" x="263.1846" y="-410.4" font-family="Courier,monospace" font-size="14.00" fill="#000000">a</text>
<text text-anchor="middle" x="263.1846" y="-393.6" font-family="Courier,monospace" font-size="14.00" fill="#000000">12←11</text>
<text text-anchor="middle" x="263.1846" y="-376.8" font-family="Courier,monospace" font-size="14.00" fill="#000000">11←p</text>
<text text-anchor="middle" x="263.1846" y="-360" font-family="Courier,monospace" font-size="14.00" fill="#000000">13←p</text>
<text text-anchor="middle" x="263.1846" y="-343.2" font-family="Courier,monospace" font-size="14.00" fill="#000000">14←p</text>
</g>
<!-- n1&#45;&gt;n2 -->
<g id="edge5" class="edge">
<title>n1-&gt;n2</title>
<path fill="none" stroke="#000000" d="M281.7258,-286.4106C289.2446,-281.0288 297.8636,-274.4964 305.1846,-268 345.5767,-232.1573 387.5863,-185.3849 412.0103,-157.0774"/>
<polygon fill="#000000" stroke="#000000" points="418.7107,-149.2626 415.6179,-159.7833 415.4562,-153.0584 412.2017,-156.8543 412.2017,-156.8543 412.2017,-156.8543 415.4562,-153.0584 408.7854,-153.9252 418.7107,-149.2626 418.7107,-149.2626"/>
<text text-anchor="middle" x="352.5797" y="-321.4" font-family="Courier,monospace" font-size="14.00" fill="#000000">b</text>
<text text-anchor="middle" x="352.5797" y="-304.6" font-family="Courier,monospace" font-size="14.00" fill="#000000">12←11</text>
<text text-anchor="middle" x="352.5797" y="-287.8" font-family="Courier,monospace" font-size="14.00" fill="#000000">13←p</text>
<text text-anchor="middle" x="352.5797" y="-271" font-family="Courier,monospace" font-size="14.00" fill="#000000">14←p</text>
<text text-anchor="middle" x="352.5797" y="-254.2" font-family="Courier,monospace" font-size="14.00" fill="#000000">15←p</text>
</g>
<!-- dr1 -->
<g id="node6" class="node">
<title>dr1</title>
<polygon fill="none" stroke="#000000" stroke-dasharray="1,5" points="296.5774,-259 229.7918,-259 229.7918,-167 296.5774,-167 296.5774,-259"/>
<text text-anchor="middle" x="263.1846" y="-242.4" font-family="Courier,monospace" font-size="14.00" fill="#000000">6←12</text>
<text text-anchor="middle" x="263.1846" y="-225.6" font-family="Courier,monospace" font-size="14.00" fill="#000000">7←13</text>
<text text-anchor="middle" x="263.1846" y="-208.8" font-family="Courier,monospace" font-size="14.00" fill="#000000">8←14</text>
<text text-anchor="middle" x="263.1846" y="-192" font-family="Courier,monospace" font-size="14.00" fill="#000000">9←n</text>
<text text-anchor="middle" x="263.1846" y="-175.2" font-family="Courier,monospace" font-size="14.00" fill="#000000">10←p</text>
</g>
<!-- n1&#45;&gt;dr1 -->
<g id="edge8" class="edge">
<title>n1:s-&gt;dr1:n</title>
<path fill="none" stroke="#000000" stroke-dasharray="1,5" d="M263.1846,-269.4161C263.1846,-271.4902 263.1846,-273.75 263.1846,-277"/>
<polygon fill="#000000" stroke="#000000" points="263.1846,-259 267.6847,-269 263.1846,-264 263.1847,-269 263.1847,-269 263.1847,-269 263.1846,-264 258.6847,-269 263.1846,-259 263.1846,-259"/>
</g>
<!-- n3 -->
<g id="node5" class="node">
<title>n3</title>
<ellipse fill="#d3d3d3" stroke="#000000" cx="590.1531" cy="-132" rx="18" ry="18"/>
<ellipse fill="none" stroke="#000000" cx="590.1531" cy="-132" rx="22" ry="22"/>
<text text-anchor="middle" x="590.1531" y="-127.8" font-family="Courier,monospace" font-size="14.00" fill="#000000">3</text>
</g>
<!-- n2&#45;&gt;n3 -->
<g id="edge6" class="edge">
<title>n2-&gt;n3</title>
<path fill="none" stroke="#000000" d="M455.3294,-132C482.0927,-132 527.3238,-132 557.941,-132"/>
<polygon fill="#000000" stroke="#000000" points="568.107,-132 558.1071,-136.5001 563.107,-132 558.107,-132.0001 558.107,-132.0001 558.107,-132.0001 563.107,-132 558.107,-127.5001 568.107,-132 568.107,-132"/>
<text text-anchor="middle" x="509.5622" y="-153" font-family="Courier,monospace" font-size="14.00" fill="#000000">b</text>
<text text-anchor="middle" x="509.5622" y="-136.2" font-family="Courier,monospace" font-size="14.00" fill="#000000">20←p</text>
</g>
<!-- dr2 -->
<g id="node7" class="node">
<title>dr2</title>
<polygon fill="none" stroke="#000000" stroke-dasharray="1,5" points="466.5634,-92 399.7778,-92 399.7778,0 466.5634,0 466.5634,-92"/>
<text text-anchor="middle" x="433.1706" y="-75.4" font-family="Courier,monospace" font-size="14.00" fill="#000000">6←12</text>
<text text-anchor="middle" x="433.1706" y="-58.6" font-family="Courier,monospace" font-size="14.00" fill="#000000">7←13</text>
<text text-anchor="middle" x="433.1706" y="-41.8" font-family="Courier,monospace" font-size="14.00" fill="#000000">8←14</text>
<text text-anchor="middle" x="433.1706" y="-25" font-family="Courier,monospace" font-size="14.00" fill="#000000">9←15</text>
<text text-anchor="middle" x="433.1706" y="-8.2" font-family="Courier,monospace" font-size="14.00" fill="#000000">10←p</text>
</g>
<!-- n2&#45;&gt;dr2 -->
<g id="edge9" class="edge">
<title>n2:s-&gt;dr2:n</title>
<path fill="none" stroke="#000000" stroke-dasharray="1,5" d="M433.1706,-102.4161C433.1706,-104.4902 433.1706,-106.75 433.1706,-110"/>
<polygon fill="#000000" stroke="#000000" points="433.1706,-92 437.6707,-102 433.1706,-97 433.1707,-102 433.1707,-102 433.1707,-102 433.1706,-97 428.6707,-102 433.1706,-92 433.1706,-92"/>
</g>
<!-- n3&#45;&gt;n3 -->
<g id="edge7" class="edge">
<title>n3-&gt;n3</title>
<path fill="none" stroke="#000000" d="M576.4751,-149.2683C572.625,-160.7874 577.1844,-172 590.1531,-172 599.0691,-172 604.0104,-166.7003 604.9768,-159.6448"/>
<polygon fill="#000000" stroke="#000000" points="603.8311,-149.2683 609.4015,-158.7139 604.3799,-154.2381 604.9287,-159.2079 604.9287,-159.2079 604.9287,-159.2079 604.3799,-154.2381 600.4559,-159.7018 603.8311,-149.2683 603.8311,-149.2683"/>
<text text-anchor="middle" x="590.1531" y="-176.2" font-family="Courier,monospace" font-size="14.00" fill="#000000">b</text>
</g>
<!-- dr3 -->
<g id="node8" class="node">
<title>dr3</title>
<polygon fill="none" stroke="#000000" stroke-dasharray="1,5" points="627.4436,-92 552.8626,-92 552.8626,0 627.4436,0 627.4436,-92"/>
<text text-anchor="middle" x="590.1531" y="-75.4" font-family="Courier,monospace" font-size="14.00" fill="#000000">6←12</text>
<text text-anchor="middle" x="590.1531" y="-58.6" font-family="Courier,monospace" font-size="14.00" fill="#000000">7←13</text>
<text text-anchor="middle" x="590.1531" y="-41.8" font-family="Courier,monospace" font-size="14.00" fill="#000000">8←14</text>
<text text-anchor="middle" x="590.1531" y="-25" font-family="Courier,monospace" font-size="14.00" fill="#000000">9←15</text>
<text text-anchor="middle" x="590.1531" y="-8.2" font-family="Courier,monospace" font-size="14.00" fill="#000000">10←20</text>
</g>
<!-- n3&#45;&gt;dr3 -->
<g id="edge10" class="edge">
<title>n3:s-&gt;dr3:n</title>
<path fill="none" stroke="#000000" stroke-dasharray="1,5" d="M590.1531,-102.4161C590.1531,-104.4902 590.1531,-106.75 590.1531,-110"/>
<polygon fill="#000000" stroke="#000000" points="590.1531,-92 594.6532,-102 590.1531,-97 590.1532,-102 590.1532,-102 590.1532,-102 590.1531,-97 585.6532,-102 590.1531,-92 590.1531,-92"/>
</g>
<!-- n1_fin -->
<!-- n2_fin -->
<!-- n3_fin -->
</g>
</svg>