<?xml version="1.0" encoding="UTF-8" standalone="no"?><!DOCTYPE svg PUBLIC "-//W3C//DTD SVG 1.1//EN" "http://www.w3.org/Graphics/SVG/1.1/DTD/svg11.dtd"><!-- Generated by graphviz version 2.40.1 (20161225.0304)
 --><!-- Title: G Pages: 1 --><svg xmlns="http://www.w3.org/2000/svg" xmlns:xlink="http://www.w3.org/1999/xlink" width="443pt" height="98pt" viewBox="0.00 0.00 442.98 98.00">
<g id="graph0" class="graph" transform="scale(1 1) rotate(0) translate(4 94)">
<title>G</title>
<polygon fill="#ffffff" stroke="transparent" points="-4,4 -4,-94 438.9776,-94 438.9776,4 -4,4"/>
<!-- n -->
<g id="node1" class="node">
<title>n</title>
<ellipse fill="#000000" stroke="#000000" cx="43.793" cy="-45" rx="1.8" ry="1.8"/>
<text text-anchor="middle" x="20.9965" y="-30.6" font-family="Courier,monospace" font-size="14.00" fill="#000000">Start</text>
</g>
<!-- n5 -->
<g id="node2" class="node">
<title>n5</title>
<ellipse fill="none" stroke="#000000" cx="100.593" cy="-45" rx="18" ry="18"/>
<text text-anchor="middle" x="100.593" y="-40.8" font-family="Courier,monospace" font-size="14.00" fill="#000000">5</text>
</g>
<!-- n&#45;&gt;n5 -->
<g id="edge1" class="edge">
<title>n-&gt;n5</title>
<path fill="none" stroke="#000000" stroke-dasharray="1,5" d="M45.6828,-45C50.0452,-45 61.3037,-45 72.4988,-45"/>
<polygon fill="#000000" stroke="#000000" points="82.5626,-45 72.5626,-49.5001 77.5626,-45 72.5626,-45.0001 72.5626,-45.0001 72.5626,-45.0001 77.5626,-45 72.5626,-40.5001 82.5626,-45 82.5626,-45"/>
</g>
<!-- n4 -->
<g id="node3" class="node">
<title>n4</title>
<ellipse fill="#d3d3d3" stroke="#000000" cx="206.1874" cy="-72" rx="18" ry="18"/>
<text text-anchor="middle" x="206.1874" y="-67.8" font-family="Courier,monospace" font-size="14.00" fill="#000000">4</text>
</g>
<!-- n5&#45;&gt;n4 -->
<g id="edge2" class="edge">
<title>n5-&gt;n4</title>
<path fill="none" stroke="#000000" d="M118.5057,-49.5802C134.9885,-53.7948 159.6817,-60.1087 178.6673,-64.9632"/>
<polygon fill="#000000" stroke="#000000" points="188.5393,-67.4875 177.7362,-69.3699 183.6951,-66.2488 178.851,-65.0101 178.851,-65.0101 178.851,-65.0101 183.6951,-66.2488 179.9658,-60.6504 188.5393,-67.4875 188.5393,-67.4875"/>
<text text-anchor="middle" x="153.3902" y="-66.2" font-family="Courier,monospace" font-size="14.00" fill="#000000">2/ε</text>
</g>
<!-- n3 -->
<g id="node4" class="node">
<title>n3</title>
<ellipse fill="#d3d3d3" stroke="#000000" cx="206.1874" cy="-18" rx="18" ry="18"/>
<text text-anchor="middle" x="206.1874" y="-13.8" font-family="Courier,monospace" font-size="14.00" fill="#000000">3</text>
</g>
<!-- n5&#45;&gt;n3 -->
<g id="edge3" class="edge">
<title>n5-&gt;n3</title>
<path fill="none" stroke="#000000" d="M118.1084,-39.5049C123.9636,-37.7324 130.5395,-35.8109 136.593,-34.2 150.267,-30.5612 165.5719,-26.949 178.3397,-24.062"/>
<polygon fill="#000000" stroke="#000000" points="188.3765,-21.8228 179.5963,-28.3924 183.4965,-22.9116 178.6165,-24.0003 178.6165,-24.0003 178.6165,-24.0003 183.4965,-22.9116 177.6366,-19.6083 188.3765,-21.8228 188.3765,-21.8228"/>
<text text-anchor="middle" x="153.3902" y="-39.2" font-family="Courier,monospace" font-size="14.00" fill="#000000">1/ε</text>
</g>
<!-- n1 -->
<g id="node5" class="node">
<title>n1</title>
<ellipse fill="#d3d3d3" stroke="#000000" cx="311.7818" cy="-72" rx="18" ry="18"/>
<text text-anchor="middle" x="311.7818" y="-67.8" font-family="Courier,monospace" font-size="14.00" fill="#000000">1</text>
</g>
<!-- n4&#45;&gt;n1 -->
<g id="edge4" class="edge">
<title>n4-&gt;n1</title>
<path fill="none" stroke="#000000" d="M224.5805,-72C240.8577,-72 264.862,-72 283.567,-72"/>
<polygon fill="#000000" stroke="#000000" points="293.5994,-72 283.5995,-76.5001 288.5994,-72 283.5994,-72.0001 283.5994,-72.0001 283.5994,-72.0001 288.5994,-72 283.5994,-67.5001 293.5994,-72 293.5994,-72"/>
<text text-anchor="middle" x="258.9846" y="-76.2" font-family="Courier,monospace" font-size="14.00" fill="#000000">1/-1</text>
</g>
<!-- n2 -->
<g id="node6" class="node">
<title>n2</title>
<ellipse fill="#d3d3d3" stroke="#000000" cx="311.7818" cy="-18" rx="18" ry="18"/>
<text text-anchor="middle" x="311.7818" y="-13.8" font-family="Courier,monospace" font-size="14.00" fill="#000000">2</text>
</g>
<!-- n3&#45;&gt;n2 -->
<g id="edge5" class="edge">
<title>n3-&gt;n2</title>
<path fill="none" stroke="#000000" d="M224.5805,-18C240.8577,-18 264.862,-18 283.567,-18"/>
<polygon fill="#000000" stroke="#000000" points="293.5994,-18 283.5995,-22.5001 288.5994,-18 283.5994,-18.0001 283.5994,-18.0001 283.5994,-18.0001 288.5994,-18 283.5994,-13.5001 293.5994,-18 293.5994,-18"/>
<text text-anchor="middle" x="258.9846" y="-22.2" font-family="Courier,monospace" font-size="14.00" fill="#000000">b</text>
</g>
<!-- n0 -->
<g id="node7" class="node">
<title>n0</title>
<ellipse fill="#d3d3d3" stroke="#000000" cx="412.9776" cy="-45" rx="18" ry="18"/>
<ellipse fill="none" stroke="#000000" cx="412.9776" cy="-45" rx="22" ry="22"/>
<text text-anchor="middle" x="412.9776" y="-40.8" font-family="Courier,monospace" font-size="14.00" fill="#000000">0</text>
</g>
<!-- n1&#45;&gt;n0 -->
<g id="edge7" class="edge">
<title>n1-&gt;n0</title>
<path fill="none" stroke="#000000" d="M329.4088,-67.297C343.8939,-63.4322 364.7645,-57.8637 382.0245,-53.2586"/>
<polygon fill="#000000" stroke="#000000" points="391.6943,-50.6786 383.1923,-57.6045 386.8632,-51.9676 382.0322,-53.2566 382.0322,-53.2566 382.0322,-53.2566 386.8632,-51.9676 380.8721,-48.9087 391.6943,-50.6786 391.6943,-50.6786"/>
<text text-anchor="middle" x="360.3797" y="-65.2" font-family="Courier,monospace" font-size="14.00" fill="#000000">a</text>
</g>
<!-- n2&#45;&gt;n0 -->
<g id="edge6" class="edge">
<title>n2-&gt;n0</title>
<path fill="none" stroke="#000000" d="M329.6673,-20.3324C341.9841,-22.1666 358.6473,-25.1009 372.9776,-29.2 376.208,-30.124 379.5387,-31.2114 382.8346,-32.3762"/>
<polygon fill="#000000" stroke="#000000" points="392.4827,-36.0165 381.538,-36.6966 387.8047,-34.2514 383.1266,-32.4863 383.1266,-32.4863 383.1266,-32.4863 387.8047,-34.2514 384.7152,-28.276 392.4827,-36.0165 392.4827,-36.0165"/>
<text text-anchor="middle" x="360.3797" y="-34.2" font-family="Courier,monospace" font-size="14.00" fill="#000000">1/1</text>
</g>
</g>
</svg>